<svg width="624" height="469" viewBox="0 0 624 469" fill="none" xmlns="http://www.w3.org/2000/svg">
<path d="M442.92 274.02C445.87 273.26 448.76 272.52 451.57 271.78C453.09 268.8 454.51 265.77 455.83 262.69C453.624 262.37 451.527 261.531 449.71 260.24C447.697 264.953 445.43 269.553 442.92 274.02Z" fill="white"/>
<path d="M168.19 240.17C168.945 239.971 169.666 239.661 170.33 239.25C170.787 238.986 171.218 238.682 171.62 238.34L171.71 238.25C172.293 237.786 172.771 237.203 173.11 236.54C173.28 236.18 173.47 235.8 173.66 235.38C172.84 231.82 172.16 228.2 171.66 224.55C171.27 225.4 170.89 226.25 170.5 227.11C169.3 229.776 168.1 232.443 166.9 235.11C167.267 236.83 167.667 238.533 168.1 240.22L168.19 240.17Z" fill="white"/>
<path d="M462 199.4L462.55 198.28C462.99 197.28 463.33 196.54 463.55 196.05C466.7 188.32 466.55 184.12 465.28 182.77C464.872 182.322 464.35 181.994 463.77 181.82C462.999 181.585 462.195 181.477 461.39 181.5C461.02 181.5 460.65 181.5 460.26 181.5H459.86C460.788 187.773 461.305 194.1 461.41 200.44C461.65 200.14 461.85 199.78 462 199.4Z" fill="white"/>
<path d="M195.63 287.46L195.73 285.46C195.59 285.25 195.44 285.05 195.31 284.84C193.969 286.322 192.529 287.712 191 289C190.83 289.15 190.65 289.29 190.47 289.43C191.99 291.62 193.57 293.78 195.2 295.88L195.49 290.32L195.63 287.46Z" fill="white"/>
<path d="M210 303.05C208 300.91 206.04 298.71 204.12 296.45C203.4 296.53 202.68 296.6 201.95 296.65L196.14 297.08C197.85 299.26 199.63 301.39 201.46 303.47L210 303.05Z" fill="white"/>
<path d="M397.09 323.77C377.448 337.011 354.872 345.259 331.321 347.8C307.769 350.341 283.954 347.097 261.94 338.35C256.84 338.583 251.923 338.77 247.19 338.91C273.381 352.141 302.841 357.508 332.015 354.364C361.19 351.219 388.83 339.698 411.6 321.19C406.7 322.103 401.863 322.963 397.09 323.77Z" fill="white"/>
<path d="M229.88 253.46C230.44 252.37 230.99 251.25 231.52 250.1C230.89 248.99 230.28 247.86 229.71 246.71C229.44 248.33 229.13 249.96 228.79 251.58C229.14 252.24 229.5 252.87 229.88 253.46Z" fill="white"/>
<path d="M171 162.68C172.607 159.661 174.993 157.126 177.91 155.34C197.66 98.2698 251.91 57.1698 315.66 57.1698C382.83 57.1698 439.53 102.84 456.32 164.76L456.99 164.66L459.47 164.36C460.71 164.23 461.86 164.14 462.95 164.1C445.76 98.8499 386.24 50.5898 315.66 50.5898C242.66 50.5898 181.46 102.23 166.73 170.92L168.13 168.18L171 162.68Z" fill="white"/>
<path d="M223.63 41.3399C225.206 42.1447 226.962 42.5304 228.73 42.4599C230.92 42.3293 233.096 42.0318 235.24 41.5699C236.864 41.2184 238.507 40.9613 240.16 40.7999C241.324 40.6896 242.497 40.8469 243.59 41.2599C244.687 41.7014 245.567 42.5561 246.04 43.6399C246.404 44.3372 246.606 45.1071 246.632 45.8929C246.658 46.6787 246.507 47.4603 246.19 48.1799C245.356 49.8671 243.933 51.1904 242.19 51.8999C240.616 52.8038 238.753 53.0653 236.99 52.63C235.454 52.17 234.151 51.1396 233.35 49.75L227.17 52.75C228.059 54.6678 229.538 56.2514 231.39 57.2699C233.288 58.2856 235.432 58.753 237.58 58.6199C240.018 58.4828 242.402 57.8428 244.58 56.7399C246.865 55.6978 248.858 54.1073 250.38 52.1099C251.693 50.4065 252.504 48.3698 252.72 46.2299C252.928 44.2479 252.582 42.247 251.72 40.4499C250.883 38.5022 249.419 36.8902 247.56 35.8699C245.955 35.047 244.163 34.6542 242.36 34.7299C240.13 34.8679 237.912 35.1552 235.72 35.5899C234.135 35.9207 232.533 36.1611 230.92 36.3099C229.799 36.4119 228.67 36.2686 227.61 35.8899C227.103 35.6962 226.64 35.4038 226.247 35.0296C225.854 34.6553 225.539 34.2068 225.32 33.7099C224.941 33.0416 224.723 32.2936 224.685 31.5261C224.647 30.7585 224.789 29.9927 225.1 29.2899C225.835 27.8401 227.051 26.691 228.54 26.0399C230.089 25.1889 231.888 24.9126 233.62 25.2599C234.329 25.3963 235 25.6806 235.591 26.0942C236.182 26.5077 236.679 27.0412 237.05 27.66L243.44 24.5399C242.713 23.2063 241.706 22.0462 240.487 21.1398C239.268 20.2335 237.867 19.6023 236.38 19.2899C233.085 18.6901 229.684 19.2335 226.74 20.8299C224.547 21.85 222.592 23.3182 221 25.1399C219.635 26.7186 218.751 28.6548 218.45 30.72C218.195 32.8068 218.575 34.9221 219.54 36.7899C220.353 38.7232 221.794 40.3261 223.63 41.3399Z" fill="white"/>
<path d="M261.63 13.5601L270.42 46.3601L276.63 44.7001L267.84 11.8901L277.92 9.19012L276.56 4.12012L250.14 11.2101L251.49 16.2801L261.63 13.5601Z" fill="white"/>
<path d="M292.91 34.7998C294.327 36.8902 296.336 38.5094 298.68 39.4498C301.166 40.3925 303.822 40.8031 306.476 40.655C309.131 40.5068 311.725 39.8033 314.09 38.5898C316.333 37.3925 318.176 35.5637 319.39 33.3298C320.705 30.7973 321.271 27.9423 321.02 25.0998L319.64 0.259766L313.22 0.619781L314.6 25.5698C314.77 28.5698 314.11 30.8098 312.6 32.3998C310.885 34.0911 308.569 35.0332 306.16 35.0198C303.79 35.292 301.409 34.6122 299.54 33.1298C297.89 31.7098 296.99 29.5198 296.82 26.5598L295.43 1.55978L289.02 1.91977L290.39 26.7598C290.466 29.6219 291.339 32.4061 292.91 34.7998Z" fill="white"/>
<path d="M352 41.4599C355.25 40.5303 358.148 38.6497 360.32 36.0599C362.6 33.2389 364.081 29.8581 364.61 26.2699C365.313 22.6838 365.058 18.9757 363.87 15.5199C362.705 12.3187 360.617 9.53475 357.87 7.51987C354.786 5.3009 351.217 3.85065 347.46 3.28986L334.85 1.10986L328.17 39.7399L340.79 41.9199C344.511 42.6438 348.35 42.4863 352 41.4599ZM340.3 7.35986L346.58 8.44986C351.1 9.22986 354.347 11.0865 356.32 14.0199C358.293 16.9532 358.893 20.6665 358.12 25.1599C357.353 29.5999 355.553 32.8365 352.72 34.8699C349.887 36.9032 346.22 37.5265 341.72 36.7399L335.44 35.6599L340.3 7.35986Z" fill="white"/>
<path d="M378.62 10.7664L365.877 47.8374L371.958 49.9276L384.701 12.8566L378.62 10.7664Z" fill="white"/>
<path d="M386.59 53.4601C388.492 56.4296 391.105 58.8775 394.192 60.5818C397.28 62.2861 400.744 63.1929 404.27 63.2201C407.732 63.2152 411.126 62.2568 414.08 60.4501C417.167 58.5476 419.693 55.8593 421.4 52.6601C423.196 49.521 424.115 45.9564 424.06 42.3401C424 38.8879 423.001 35.5171 421.17 32.5901C419.281 29.5956 416.653 27.1369 413.54 25.4501C410.47 23.7219 407.003 22.8224 403.48 22.8401C400.023 22.8451 396.633 23.7887 393.67 25.5701C390.601 27.4873 388.072 30.1558 386.322 33.3231C384.572 36.4903 383.66 40.0516 383.67 43.6701C383.731 47.1388 384.741 50.5245 386.59 53.4601ZM392.11 36.4601C393.335 34.1235 395.114 32.122 397.29 30.6301C399.242 29.3021 401.54 28.5754 403.9 28.5401C406.321 28.5612 408.698 29.1848 410.817 30.3545C412.937 31.5242 414.732 33.2033 416.04 35.2401C417.262 37.2524 417.87 39.5773 417.79 41.9301C417.692 44.5733 416.947 47.1521 415.62 49.4401C414.386 51.7851 412.602 53.7958 410.42 55.3001C408.461 56.6344 406.159 57.3773 403.79 57.4401C401.361 57.4699 398.968 56.8483 396.86 55.6401C394.711 54.505 392.91 52.808 391.65 50.7301C390.436 48.6932 389.836 46.3496 389.92 43.9801C390.03 41.333 390.781 38.7523 392.11 36.4601Z" fill="white"/>
<path d="M280.92 109.7C262.957 116.429 247.313 128.19 235.858 143.576C224.404 158.962 217.624 177.322 216.33 196.46C216.735 196.412 217.142 196.388 217.55 196.39C218.198 196.39 218.844 196.45 219.48 196.57C220.712 178.173 227.19 160.515 238.146 145.685C249.102 130.855 264.077 119.474 281.3 112.89C281.097 111.837 280.97 110.771 280.92 109.7Z" fill="white"/>
<path d="M288.36 298.82C291.91 298.58 295.45 298.33 299 298.07C278.27 294.424 259.304 284.091 245 268.65L244 270.04C243.72 270.44 243.45 270.83 243.16 271.22C255.452 284.32 271.055 293.856 288.32 298.82H288.36Z" fill="white"/>
<path d="M401.63 253.46C401.31 252.79 401.01 252.08 400.74 251.35C400.54 250.79 400.35 250.24 400.19 249.7C389.159 269.621 371.453 285.011 350.19 293.16C353.85 292.707 357.453 292.234 361 291.74C377.888 283.075 391.975 269.802 401.63 253.46Z" fill="white"/>
<path d="M407.1 171.96C408.279 172.006 409.448 172.197 410.58 172.53C405.856 157.963 397.852 144.674 387.185 133.686C376.517 122.698 363.471 114.304 349.05 109.15C349.026 110.223 348.922 111.292 348.74 112.35C362.3 117.3 374.58 125.223 384.679 135.538C394.778 145.853 402.439 158.298 407.1 171.96Z" fill="white"/>
<path d="M196.33 172.15C197.412 170.824 198.774 169.753 200.317 169.013C201.861 168.273 203.548 167.883 205.26 167.87H205.52L199.09 165.78C198.14 168 197.23 170.1 196.33 172.15Z" fill="white"/>
<path d="M367.59 328.46C339.86 332.46 314.59 334.99 291.95 336.63C317.428 341.129 343.66 338.296 367.59 328.46Z" fill="white"/>
<path d="M421.18 182.14C423.59 179.636 426.202 177.334 428.99 175.26C434.238 171.404 440.154 168.553 446.44 166.85L446.6 166.8C439.281 140.318 424.103 116.679 403.07 99.0041C382.036 81.3288 356.136 70.4485 328.79 67.7998C334 69.7298 338.99 72.6298 342.03 76.9798C347.77 85.2198 349.87 95.1398 350.35 101.55C367.854 107.566 383.508 117.999 395.797 131.839C408.087 145.679 416.596 162.457 420.5 180.55C420.761 181.065 420.988 181.596 421.18 182.14ZM361.85 101.14L360.5 100.54L366.44 87.1898L367.79 87.7898L361.85 101.14ZM382 112.99L380.81 112.12L389.4 100.3L390.59 101.16L382 112.99ZM399.25 128.73L398.25 127.63L409.12 117.85L410.12 118.95L399.25 128.73ZM436.11 164.59L422.21 169.1L421.75 167.7L435.66 163.19L436.11 164.59ZM412.85 147.71L412.11 146.43L424.77 139.12L425.51 140.4L412.85 147.71Z" fill="white"/>
<path d="M180.66 216.19C180.74 217.19 180.85 218.11 180.96 219.07C181.45 217.87 181.8 216.91 182.03 216.16L180.66 216.19Z" fill="white"/>
<path d="M190.25 188.99C190.211 187.653 190.288 186.314 190.48 184.99C189.07 187.99 187.55 191.11 185.84 194.58C185.11 196.06 184.33 197.58 183.51 199.25L183.31 199.66V199.76H184.55C187.65 199.67 189.15 199.6 192.2 199.43C192.94 199.43 193.65 199.37 194.32 199.37H195.18C194.012 198.577 193.014 197.559 192.243 196.376C191.472 195.193 190.944 193.869 190.69 192.48C190.543 191.822 190.446 191.153 190.4 190.48H190.09L190.25 189.01V188.99Z" fill="white"/>
<path d="M209.65 237.3C209.802 236.957 209.916 236.598 209.99 236.23C210.393 233.408 210.467 230.549 210.21 227.71V227.27C210.12 225.61 210.01 224.11 209.87 222.76L207.57 219.63C204.63 227.19 201.86 234.04 199.44 239.94L204 238.46L205.55 235.15L205.75 237.89L209.3 236.74L209.56 237.55V237.46L209.65 237.3Z" fill="white"/>
<path d="M209.9 168.85C211.25 169.405 212.444 170.28 213.38 171.4C218.303 155.536 226.833 141.028 238.301 129.012C249.769 116.996 263.863 107.798 279.48 102.14C279.86 95.76 281.9 85.48 287.8 77C290.72 72.8 295.48 69.95 300.51 68C276.409 70.7286 253.478 79.8607 234.099 94.4477C214.72 109.035 199.6 128.544 190.31 150.95C192.257 150.615 194.219 150.378 196.19 150.24L205.93 149.55L202.14 158.55C201.28 160.61 200.46 162.55 199.67 164.4L209.74 167.67L209.43 168.67L209.9 168.85ZM265 87.23L271 100.58L269.66 101.18L263.71 87.83L265 87.23ZM242.05 100.3L250.65 112.12L249.45 112.99L240.9 101.16L242.05 100.3ZM222.33 117.85L233.19 127.63L232.19 128.73L221.33 118.95L222.33 117.85ZM206 140.4L206.74 139.12L219.38 146.46L218.64 147.74L206 140.4Z" fill="white"/>
<path d="M198.67 241.73C196.92 245.98 195.37 249.73 194.08 252.73L191.74 258.2C192.18 259.2 192.64 260.2 193.1 261.2C194.03 259.55 194.92 257.8 195.78 255.98L203.12 240.33L198.67 241.73Z" fill="white"/>
<path d="M202.12 276.06L202.36 275.21C202.12 275.62 201.88 276.03 201.62 276.43C201.71 276.58 201.81 276.72 201.89 276.86C202 276.6 202 276.34 202.12 276.06Z" fill="white"/>
<path d="M270.45 299.95C258.515 294.362 247.714 286.619 238.59 277.11C231.48 285.39 223.77 290.94 215.08 293.97C217.747 296.903 220.52 299.717 223.4 302.41L243.26 301.41L249.49 292.83L250.69 293.69L245.15 301.32C253.46 300.91 261.92 300.46 270.45 299.95Z" fill="white"/>
<path d="M208.73 198.73C207.119 200.032 205.176 200.856 203.12 201.11C204.058 201.585 204.927 202.187 205.7 202.9C206.558 201.753 207.567 200.727 208.7 199.85C208.69 199.46 208.71 199.1 208.73 198.73Z" fill="white"/>
<path d="M206.12 243.25L207.64 241.17C207.324 241.033 206.985 240.958 206.64 240.95H206.36C206.601 240.857 206.833 240.74 207.05 240.6C207.927 240.014 208.653 239.229 209.17 238.31L205.87 239.38L206.12 243.25Z" fill="white"/>
<path d="M406 283.17C414.1 281.236 421.833 279.346 429.2 277.5C432.538 272.44 435.525 267.158 438.14 261.69C434.196 263.191 430.081 264.198 425.89 264.69L424.53 264.83L425.53 265.4L424.79 266.67L421.79 264.95H421.44C417.52 265.033 413.639 264.15 410.14 262.38C408.802 261.67 407.554 260.804 406.42 259.8C399.347 271.033 390.261 280.864 379.62 288.8C386.22 287.63 392.52 286.35 398.43 284.95L404.23 283.57L398.23 278.18L399.23 277.09L406 283.17Z" fill="white"/>
<path d="M207 255.09V255.68C207 255.5 207.07 255.33 207.11 255.15L207 255.09Z" fill="white"/>
<path d="M443.74 189.96C442.64 191.03 441.55 192.2 440.49 193.43C440.06 193.93 439.67 194.43 439.29 194.88C435.246 200.043 431.825 205.665 429.1 211.63C428.71 212.43 428.37 213.21 428.04 213.98L441.44 215.39L441.29 216.86L427.42 215.4C424.62 221.779 422.692 228.506 421.69 235.4C421.382 237.515 421.278 239.655 421.38 241.79C421.52 244.22 422.04 245.95 422.85 246.71C423.417 246.979 424.044 247.096 424.67 247.05C425.105 247.046 425.538 247.02 425.97 246.97C428.62 246.67 431.64 245.15 434.97 242.43L421.73 238.14L422.19 236.73L436.09 241.25L435.99 241.57C436.43 241.19 436.88 240.79 437.33 240.36C438.959 238.831 440.505 237.216 441.96 235.52C444.847 232.123 447.449 228.494 449.74 224.67C450.193 221.877 450.553 219.063 450.82 216.23C450.94 215.06 451.04 213.88 451.12 212.7C451.347 209.467 451.463 206.207 451.47 202.92C451.471 196.877 451.07 190.84 450.27 184.85C447.889 186.275 445.695 187.991 443.74 189.96Z" fill="white"/>
<path d="M320.39 145.46C319.49 145.31 319.39 148.33 319.39 149.26H319.46L319.8 149.38C320.184 149.55 320.605 149.618 321.024 149.58C321.442 149.541 321.843 149.397 322.19 149.16C322.15 148.684 322.15 148.206 322.19 147.73C322.187 147.205 322.008 146.696 321.682 146.285C321.355 145.873 320.901 145.583 320.39 145.46Z" fill="white"/>
<path d="M297.2 125.64C296.85 125.457 296.516 125.246 296.2 125.01C296.046 124.91 295.872 124.846 295.69 124.823C295.508 124.801 295.323 124.82 295.15 124.88C295.525 125.409 296.068 125.797 296.69 125.98L297.2 125.64Z" fill="white"/>
<path d="M297.48 136.74C297.54 136.91 297.58 137.07 297.61 137.19C298.447 137.758 299.346 138.228 300.29 138.59C299.564 137.701 298.584 137.055 297.48 136.74Z" fill="white"/>
<path d="M300.5 143.46C300.5 143.65 300.5 143.86 300.42 144.07C300.195 144.84 300.244 145.663 300.56 146.4C300.76 146.643 301.04 146.807 301.35 146.86C301.52 146.08 301.9 144.11 301.44 143.72C301.319 143.6 301.168 143.513 301.004 143.468C300.839 143.422 300.666 143.42 300.5 143.46Z" fill="white"/>
<path d="M322.63 146C322.32 146.4 322.71 147.8 323.01 148.72L323.15 148.78C323.404 148.918 323.698 148.96 323.98 148.9C324.106 148.838 324.208 148.736 324.27 148.61L324.36 148.37C324.23 147.37 323.95 145.46 323.87 145.13C323.79 144.8 323.1 145.4 322.63 146Z" fill="white"/>
<path d="M311.08 113.87C310.378 115.14 309.773 116.46 309.27 117.82C309.223 118.948 309.117 120.073 308.95 121.19C308.61 122.49 309.11 122.46 309.11 122.46L309.27 122.64C309.829 122.099 310.271 121.449 310.568 120.73C310.866 120.011 311.013 119.238 311 118.46C311.146 119.278 311.099 120.119 310.863 120.916C310.627 121.713 310.208 122.444 309.64 123.05C310.354 123.9 310.922 124.864 311.32 125.9L311.56 125.29C311.8 123.5 311.95 119.85 312.03 119.44C312.11 119.03 311.8 117.58 312.03 117.44C312.38 116.434 312.556 115.376 312.55 114.31C312.509 113.718 312.509 113.123 312.55 112.53C311.996 112.901 311.5 113.353 311.08 113.87Z" fill="white"/>
<path d="M317.91 117.39C318.12 117.57 317.8 118.94 317.91 119.39C318.02 119.84 318.14 123.39 318.39 125.24L318.63 125.85C319.027 124.815 319.591 123.852 320.3 123C319.733 122.391 319.315 121.658 319.079 120.86C318.843 120.062 318.796 119.22 318.94 118.4C318.914 119.182 319.051 119.961 319.342 120.687C319.633 121.414 320.072 122.072 320.63 122.62L320.8 122.44C320.8 122.44 321.29 122.44 320.95 121.17C320.778 120.05 320.671 118.922 320.63 117.79C320.126 116.429 319.517 115.108 318.81 113.84C318.414 113.308 317.942 112.837 317.41 112.44C317.451 113.033 317.451 113.627 317.41 114.22C317.394 115.297 317.563 116.37 317.91 117.39Z" fill="white"/>
<path d="M298.19 124.95L297.19 125.07L297.44 125.45L298.19 124.95Z" fill="white"/>
<path d="M310.11 149.28L310.44 149.16L310.52 149.21C310.52 148.28 310.44 145.27 309.52 145.42C309.005 145.525 308.539 145.799 308.198 146.2C307.857 146.601 307.661 147.104 307.64 147.63C307.7 148.104 307.72 148.582 307.7 149.06C308.048 149.303 308.453 149.451 308.876 149.49C309.299 149.528 309.724 149.456 310.11 149.28Z" fill="white"/>
<path d="M311.77 145.12C311.22 145.5 310.7 148.38 310.55 149.24L310.73 149.37C311.166 149.661 311.658 149.858 312.175 149.948C312.691 150.038 313.221 150.018 313.73 149.89C314.98 149.33 314.56 147.6 314.56 147.6C314.425 147.115 314.205 146.658 313.91 146.25C313.26 145.54 312.43 144.67 311.77 145.12Z" fill="white"/>
<path d="M318.16 145.14C317.5 144.69 316.67 145.57 316 146.28C315.703 146.683 315.482 147.137 315.35 147.62C315.309 147.827 315.289 148.038 315.29 148.25C315.258 148.585 315.326 148.922 315.487 149.217C315.647 149.513 315.892 149.754 316.19 149.91C316.699 150.036 317.229 150.054 317.746 149.963C318.263 149.872 318.755 149.673 319.19 149.38L319.36 149.26C319.24 148.39 318.71 145.52 318.16 145.14Z" fill="white"/>
<path d="M303.99 148.29H304.12L303.99 148.27V148.29Z" fill="white"/>
<path d="M306.06 145.12C305.98 145.45 305.71 147.38 305.58 148.36L305.66 148.6C305.724 148.728 305.83 148.83 305.96 148.89C306.242 148.945 306.535 148.903 306.79 148.77L306.92 148.7C307.22 147.79 307.61 146.38 307.3 145.99C306.83 145.39 306.16 144.68 306.06 145.12Z" fill="white"/>
<path d="M302.23 147.39V147.54C302.23 147.75 302.65 147.83 303.17 147.74H303.41C303.69 146.82 304.23 144.85 303.64 144.51C302.86 144.05 302.56 145.68 302.23 147.39Z" fill="white"/>
<path d="M305 148.15C305.15 147.21 305.5 144.88 305.17 144.8C304.46 144.63 304.17 146.46 304.1 147.59H304.18L304.1 147.9C304.093 148.033 304.093 148.167 304.1 148.3C304.36 148.291 304.618 148.254 304.87 148.19L305 148.15Z" fill="white"/>
<path d="M326.3 144.46C325.71 144.79 326.3 146.77 326.54 147.68H326.77C327.29 147.77 327.66 147.68 327.71 147.47V147.33C327.37 145.69 327.07 144.06 326.3 144.46Z" fill="white"/>
<path d="M312.38 119.19L312 123.87C312.53 122.15 313.6 118.56 313.6 118.56L313.89 119.89L314.06 118.83L314.69 118.39V118.28H314.64V118.07L314.69 113.64L314.93 116.87L315.17 113.61L315.22 118.04L315.27 118.3V118.38H315.14V118.43L315.77 118.88L315.94 119.93L316.23 118.61C316.23 118.61 317.3 122.2 317.83 123.92L317.45 119.24L317.54 117.52C317.54 117.52 316.54 114.14 317.04 112.28C316.378 111.751 315.588 111.407 314.75 111.28C314.023 111.477 313.344 111.817 312.75 112.28C313.27 114.14 312.26 117.52 312.26 117.52L312.38 119.19Z" fill="white"/>
<path d="M325.94 148.28L325.81 148.3H325.95L325.94 148.28Z" fill="white"/>
<path d="M329.42 143.46C329.254 143.42 329.08 143.422 328.916 143.468C328.751 143.513 328.601 143.6 328.48 143.72C328.03 144.11 328.41 146.08 328.58 146.87C328.887 146.809 329.165 146.647 329.37 146.41C329.686 145.67 329.735 144.843 329.51 144.07C329.47 143.88 329.45 143.67 329.42 143.46Z" fill="white"/>
<path d="M324.76 144.81C324.43 144.88 324.76 147.22 324.93 148.16H325.05C325.3 148.219 325.554 148.256 325.81 148.27C325.822 148.137 325.822 148.003 325.81 147.87L325.72 147.55H325.8C325.79 146.46 325.47 144.64 324.76 144.81Z" fill="white"/>
<path d="M37.0001 307.34C45.5201 313.34 55.3601 314.6 66.2001 310.67C101.13 298.03 119.03 259.86 128.49 226.33C130.54 219.437 131.955 212.371 132.72 205.22C136.809 198.538 139.468 191.081 140.53 183.32C141.53 175.8 140.95 169.27 138.79 163.82C135.26 155 127.19 151.05 115.06 152.53C103.33 153.97 91.77 159.74 79.98 169.21C63.51 181.79 47.24 201.12 37.48 218.9C28.63 235 22.4801 258.36 22.8201 276.9C23.0801 290.18 27.8401 300.83 37.0001 307.34ZM56.5901 218.96C67.7001 199.56 82.59 180.66 102.05 168.39C112.85 162.477 121.517 161.673 128.05 165.98C135.05 170.59 136.89 179.65 133.31 192.98C133.31 192.93 133.31 192.9 133.31 192.9C133.31 192.9 133.24 193.21 133.11 193.69C132.62 182.34 130.8 174.46 127.7 170.15C123.7 164.51 117.27 164.51 108.7 170.32C106.74 171.587 105.113 174.1 103.82 177.86C104.82 175.98 106.75 174.95 109.57 174.86C112.76 174.74 114.78 176.6 115.57 180.36C117.838 192.839 117.791 205.628 115.43 218.09C109.69 221.09 104.51 221.72 99.8301 219.79C95.1501 217.86 93.1901 214.26 93.9501 209C96.4801 211.13 99.1001 211.56 101.76 210.26C104.1 209.13 106.01 206.96 107.5 203.85C108.916 201.144 109.54 198.094 109.3 195.05C108.95 191.95 107.5 189.9 105.06 188.99C100.393 187.21 96.0201 188.41 91.9401 192.59C88.0719 196.648 85.5173 201.778 84.61 207.31C83.41 213.57 84.18 218.59 86.91 222.31C90.12 226.66 95.4301 228.15 102.77 226.75C106.882 225.952 110.855 224.554 114.56 222.6C112.375 232.605 109.268 242.387 105.28 251.82C97.5801 271.82 84.7101 297.88 63.1501 304.37C56.1501 306.46 50.1501 304.37 46.2801 298.86C42.7801 293.94 41.12 286.38 40.92 276.86C40.63 258.18 47.48 234.91 56.61 218.96H56.5901Z" fill="white"/>
<path d="M312.17 69.9499C307.01 70.8799 296.24 73.4999 291.85 79.8199C291.59 80.1899 291.34 80.5699 291.1 80.9499C290.86 81.3299 290.62 81.7299 290.39 82.1199L289.93 82.9199C289.76 83.2399 289.59 83.5499 289.43 83.9199C289.27 84.2899 289.07 84.6199 288.91 84.9199C288.83 85.0799 288.75 85.2399 288.68 85.3999C288.52 85.7599 288.36 86.1099 288.21 86.4599C287.455 88.2317 286.81 90.0485 286.28 91.8999C286.153 92.3399 286.033 92.7799 285.92 93.2199C285.806 93.6599 285.717 94.0199 285.65 94.2999C285.645 94.3731 285.645 94.4466 285.65 94.5199C285.55 94.9499 285.46 95.3799 285.37 95.7899C285.02 97.4599 284.78 99.0399 284.63 100.45C284.494 101.619 284.417 102.793 284.4 103.97V104.22C284.395 104.3 284.395 104.38 284.4 104.46C284.4 104.62 284.4 104.77 284.4 104.91C284.422 105.717 284.499 106.523 284.63 107.32C284.826 108.563 285.104 109.793 285.46 111C286.31 111.93 286.97 109.5 286.74 108.36C286.636 107.795 286.636 107.215 286.74 106.65L287.17 106.52C287.23 107.153 287.395 107.772 287.66 108.35C288.08 108.16 288.54 106.97 288.84 106.04L289.12 105.96C289.051 106.905 288.832 107.834 288.47 108.71C287.699 110.338 287.411 112.153 287.64 113.94C287.683 114.282 287.767 114.618 287.89 114.94L288.89 113.61V113.54C288.622 115.513 288.108 117.445 287.36 119.29C287.311 119.892 287.204 120.488 287.04 121.07C286.774 122.074 286.323 123.02 285.71 123.86C285.498 124.163 285.261 124.448 285 124.71C284.665 125.047 284.435 125.474 284.34 125.94C284.266 126.59 284.333 127.248 284.536 127.869C284.74 128.49 285.076 129.06 285.52 129.54C286.07 130.16 286.62 130.74 287.15 131.27C288.175 132.33 289.278 133.313 290.45 134.21C290.64 133.99 290.88 133.71 291.16 133.42C289.367 132.177 287.766 130.678 286.41 128.97C286.119 128.618 285.861 128.24 285.64 127.84L285.57 127.7C285.13 126.7 285.86 125.2 286.48 124.2C286.699 123.852 286.94 123.518 287.2 123.2C287.2 123.29 287.03 123.77 286.82 124.38C286.61 124.99 286.46 125.44 286.25 125.97C285.68 127.45 287.16 128.78 287.61 129.16C288.06 129.54 287.33 127.83 287.27 127.66L290.71 131.46L288.94 130.41C287.94 129.98 290.28 132.1 290.79 132.41C290.984 132.509 291.202 132.554 291.42 132.54C291.692 132.534 291.963 132.504 292.23 132.45C292.504 132.089 292.745 131.704 292.95 131.3C293.17 130.88 293.4 130.42 293.6 129.95L293.98 129.1C294.33 128.28 294.59 127.62 294.65 127.54C295.094 127.181 295.558 126.847 296.04 126.54C295.007 126.293 294.113 125.65 293.55 124.75C293.26 124.36 293.24 125.31 293.24 125.31C292.964 124.768 292.721 124.21 292.51 123.64C292.24 122.95 291.96 122.13 291.68 121.17C291.652 121.088 291.628 121.004 291.61 120.92C291.5 120.55 291.4 120.17 291.3 119.77C291.11 119.03 290.93 118.22 290.77 117.36C290.483 115.929 290.528 114.451 290.9 113.04C291.102 112.254 291.44 111.509 291.9 110.84C291.9 110.84 292.77 109.09 300.33 109.84C300.33 109.84 295.03 110 293.42 111.17C293.772 111.207 294.126 111.223 294.48 111.22C295.58 111.22 298.79 110.82 298.79 110.82L298.01 111.37L297.29 111.89C297.29 111.89 304.21 112.02 306.22 112.58L306.44 112.65C307.112 113.02 307.646 113.599 307.96 114.3C308.353 115.011 308.687 115.754 308.96 116.52C308.96 116.63 309.04 116.74 309.07 116.84L309.13 117.01L309.19 117.21C309.19 117.11 309.24 117.01 309.27 116.91C309.297 116.795 309.331 116.681 309.37 116.57C309.375 116.554 309.375 116.536 309.37 116.52C309.15 115.192 308.724 113.907 308.11 112.71C307.85 112.16 307.6 111.71 307.41 111.31C307.34 111.18 307.28 111.06 307.22 110.96C307.16 110.86 307.03 110.62 307.01 110.58C307.105 110.658 307.195 110.741 307.28 110.83C308.41 112.198 309.253 113.779 309.76 115.48C309.87 115.2 309.98 114.95 310.08 114.74C310.63 113.765 311.28 112.85 312.02 112.01C312.15 111.85 311.54 110.69 311.45 110.53L312.45 111.8L314.45 110.88L314.95 110.65L315.44 110.88L317.44 111.79L318.44 110.53C318.35 110.69 317.75 111.85 317.88 112.01C318.622 112.848 319.273 113.763 319.82 114.74C319.92 114.95 320.03 115.21 320.14 115.48C320.341 114.828 320.585 114.19 320.87 113.57C321.289 112.559 321.881 111.628 322.62 110.82C322.705 110.731 322.795 110.648 322.89 110.57C322.89 110.57 322.79 110.74 322.68 110.95C322.57 111.16 322.57 111.15 322.5 111.27C321.588 112.869 320.931 114.599 320.55 116.4C320.546 116.453 320.546 116.507 320.55 116.56C320.578 116.638 320.601 116.719 320.62 116.8V116.9L320.71 117.23L320.77 117.04L320.88 116.71C320.88 116.62 320.94 116.53 320.98 116.43C321.238 115.713 321.545 115.014 321.9 114.34C322.218 113.63 322.758 113.044 323.44 112.67L323.67 112.6C325.67 112.04 332.59 111.9 332.59 111.9L331.31 110.99L331.08 110.83C331.08 110.83 334.29 111.21 335.39 111.22C335.744 111.223 336.098 111.207 336.45 111.17C334.85 110 329.55 109.85 329.55 109.85C337.1 109.08 337.97 110.85 337.97 110.85C338.348 111.383 338.644 111.969 338.85 112.59C339.365 114.134 339.461 115.787 339.13 117.38C339 118.08 338.86 118.75 338.71 119.38C338.56 120.01 338.45 120.44 338.31 120.93C338.061 121.848 337.764 122.753 337.42 123.64C337.208 124.216 336.965 124.781 336.69 125.33C336.69 125.33 336.69 124.38 336.38 124.77C335.817 125.67 334.922 126.313 333.89 126.56C334.376 126.883 334.843 127.234 335.29 127.61C335.35 127.68 335.6 128.34 335.96 129.17L336.33 130.02C336.5 130.37 336.66 130.73 336.84 131.02C337.074 131.532 337.365 132.015 337.71 132.46C338.178 132.61 338.682 132.61 339.15 132.46L339.27 132.38C339.95 131.88 341.94 130.05 341 130.45L339.64 131.26L339.22 131.51L339.75 130.93L342.66 127.71C342.59 127.88 341.89 129.56 342.32 129.21C342.75 128.86 344.24 127.5 343.67 126.02C343.46 125.48 343.26 124.91 343.1 124.42C342.94 123.93 342.73 123.34 342.71 123.25C342.97 123.568 343.21 123.902 343.43 124.25C344.06 125.25 344.79 126.74 344.35 127.75C344.259 127.945 344.152 128.132 344.03 128.31L343.88 128.54C342.469 130.398 340.783 132.03 338.88 133.38L338.74 133.48L338.82 133.57C339.042 133.789 339.252 134.019 339.45 134.26C340.62 133.366 341.72 132.383 342.74 131.32C343.27 130.79 343.82 130.2 344.37 129.58C344.807 129.109 345.139 128.551 345.344 127.943C345.55 127.334 345.623 126.689 345.56 126.05C345.469 125.561 345.232 125.111 344.88 124.76C344.619 124.498 344.381 124.213 344.17 123.91C343.442 122.91 342.94 121.763 342.7 120.55C342.619 120.15 342.559 119.746 342.52 119.34C341.767 117.452 341.257 115.476 341 113.46L342 114.86C342.168 114.404 342.269 113.925 342.3 113.44C342.411 111.798 342.108 110.155 341.42 108.66C341.005 107.652 340.771 106.579 340.73 105.49H340.9C341.18 106.49 341.72 108.04 342.22 108.27C342.544 107.552 342.725 106.777 342.75 105.99L343.05 106.08C343.233 106.795 343.281 107.538 343.19 108.27C342.95 109.41 343.62 111.84 344.47 110.91C344.861 109.549 345.159 108.162 345.36 106.76C345.445 106.116 345.495 105.469 345.51 104.82C345.51 104.4 345.51 103.92 345.51 103.4C345.51 102.4 345.39 101.2 345.23 99.8799C345.1 98.7799 344.91 97.5799 344.66 96.3099C344.6 95.9699 344.53 95.6299 344.45 95.3099C344.37 94.9899 344.3 94.5999 344.21 94.2399C344.21 94.1499 344.21 94.0599 344.14 93.9599C344.07 93.8599 344.14 93.8999 344.14 93.8699C344.07 93.5899 344 93.3099 343.92 93.0199C343.92 93.0199 343.92 93.0199 343.92 92.9499C343.82 92.5499 343.71 92.1399 343.58 91.7299C343.58 91.5499 343.48 91.3699 343.42 91.1899C343.36 91.0099 343.24 90.5999 343.14 90.2999C343.04 89.9999 342.93 89.6799 342.82 89.3599L342.76 89.1899C342.64 88.8499 342.51 88.4999 342.38 88.1899C342.25 87.8799 342.19 87.6899 342.09 87.4399C342.069 87.3632 342.038 87.2894 342 87.2199C341.87 86.8999 341.74 86.5699 341.59 86.2199C341.44 85.8699 341.2 85.3399 340.99 84.8999V84.8099C340.79 84.4099 340.59 84.0099 340.38 83.6099C340.38 83.6099 340.38 83.6099 340.38 83.5599C340.16 83.1399 339.93 82.7099 339.69 82.2999C339.45 81.8899 339.35 81.7099 339.17 81.4199C338.99 81.1299 338.96 81.0799 338.85 80.9099C338.61 80.5299 338.36 80.1499 338.1 79.7799C333.69 73.4699 323 70.8499 317.88 69.9199C315.991 69.5801 314.055 69.5902 312.17 69.9499ZM317.92 102.46C317.274 103.023 316.768 103.728 316.44 104.52C316.684 103.784 316.992 103.072 317.36 102.39H318C317.982 102.395 317.966 102.404 317.952 102.416C317.939 102.428 317.927 102.443 317.92 102.46ZM317.03 102.38C316.719 102.62 316.434 102.891 316.18 103.19C316.25 103.06 316.41 102.75 316.65 102.38H317.03ZM313.69 103.18C313.447 102.899 313.179 102.642 312.89 102.41H313.24C313.408 102.659 313.559 102.919 313.69 103.19V103.18ZM313.42 104.5C313.108 103.72 312.623 103.023 312 102.46C312.176 102.45 312.353 102.45 312.53 102.46V102.53C312.883 103.163 313.18 103.826 313.42 104.51V104.5ZM289.56 124.9C289.51 124.909 289.459 124.909 289.41 124.9C289.36 124.904 289.31 124.898 289.262 124.883C289.214 124.867 289.17 124.843 289.132 124.81C289.094 124.778 289.063 124.738 289.04 124.693C289.017 124.649 289.004 124.6 289 124.55C289.004 124.483 289.027 124.418 289.066 124.363C289.104 124.309 289.158 124.266 289.22 124.24C289.279 124.226 289.341 124.226 289.4 124.24C289.499 124.231 289.598 124.262 289.674 124.326C289.751 124.39 289.8 124.481 289.81 124.58C289.809 124.654 289.784 124.726 289.739 124.786C289.694 124.845 289.631 124.889 289.56 124.91V124.9ZM290.62 126.43C290.701 126.429 290.781 126.443 290.856 126.473C290.931 126.503 291 126.548 291.058 126.605C291.115 126.662 291.161 126.729 291.192 126.804C291.224 126.879 291.24 126.959 291.24 127.04C291.237 127.202 291.173 127.357 291.059 127.472C290.945 127.587 290.792 127.655 290.63 127.66C290.549 127.661 290.468 127.646 290.393 127.616C290.318 127.586 290.25 127.542 290.192 127.485C290.134 127.428 290.088 127.36 290.057 127.286C290.026 127.211 290.01 127.131 290.01 127.05C290.009 126.922 290.048 126.798 290.122 126.694C290.195 126.59 290.299 126.512 290.42 126.47C290.485 126.452 290.553 126.448 290.62 126.46V126.43ZM290 109.87C290.507 108.98 291.194 108.206 292.017 107.596C292.84 106.987 293.781 106.555 294.78 106.33C294.254 106.509 293.777 106.811 293.39 107.21C294.571 106.792 295.846 106.712 297.07 106.98C294.524 107.392 292.106 108.381 290 109.87ZM310.5 107.72C309.45 106.91 308.57 106.25 308.45 106.2C308.035 105.981 307.631 105.74 307.24 105.48L307.68 106.2L305.14 105.2H306.93L304.44 103.82C303.941 103.577 303.418 103.386 302.88 103.25C303.51 103.17 304.15 103.09 304.79 103.03C306.523 103.75 308.196 104.609 309.79 105.6L311.49 104.69L310.49 105.87L311.42 107.1L310.42 106.85L311.07 107.38L311.2 107.49L311.53 107.76L310.5 107.72ZM339.3 127.65C339.16 127.652 339.025 127.602 338.92 127.51C338.819 127.431 338.746 127.322 338.71 127.199C338.674 127.076 338.679 126.945 338.722 126.824C338.765 126.704 338.845 126.6 338.95 126.527C339.056 126.454 339.182 126.417 339.31 126.42C339.376 126.41 339.444 126.41 339.51 126.42C339.629 126.464 339.731 126.543 339.804 126.647C339.877 126.75 339.918 126.873 339.92 127C339.926 127.087 339.913 127.174 339.882 127.255C339.852 127.337 339.804 127.411 339.743 127.473C339.681 127.534 339.607 127.582 339.525 127.612C339.444 127.643 339.357 127.656 339.27 127.65H339.3ZM332.86 106.97C334.084 106.702 335.358 106.782 336.54 107.2C336.152 106.801 335.676 106.499 335.15 106.32C336.149 106.545 337.09 106.975 337.915 107.583C338.739 108.191 339.429 108.962 339.94 109.85C337.82 108.361 335.388 107.376 332.83 106.97H332.86ZM340.94 124.58C340.936 124.629 340.922 124.678 340.9 124.722C340.877 124.766 340.845 124.805 340.807 124.837C340.769 124.869 340.725 124.892 340.677 124.907C340.629 124.921 340.579 124.925 340.53 124.92H340.38C340.31 124.899 340.248 124.857 340.204 124.8C340.159 124.742 340.133 124.673 340.13 124.6C340.134 124.55 340.147 124.501 340.17 124.457C340.193 124.412 340.224 124.372 340.262 124.34C340.3 124.307 340.344 124.282 340.392 124.267C340.44 124.252 340.49 124.246 340.54 124.25C340.606 124.251 340.671 124.268 340.73 124.3C340.781 124.327 340.825 124.367 340.856 124.416C340.888 124.465 340.906 124.522 340.91 124.58H340.94ZM325.48 103.78L323 105.17H324.79L322.25 106.17L322.68 105.44C322.293 105.701 321.892 105.941 321.48 106.16C321.35 106.21 320.48 106.87 319.48 107.67H318.48L318.79 107.41L318.91 107.32L319.56 106.78L318.56 107.03L319.5 105.8L318.5 104.62L320.19 105.53C321.893 104.455 323.694 103.544 325.57 102.81C326.25 102.87 326.94 102.95 327.57 103.04C326.836 103.2 326.124 103.448 325.45 103.78H325.48Z" fill="white"/>
<path d="M332.31 137.19C332.31 137.07 332.38 136.91 332.44 136.73C331.337 137.052 330.357 137.7 329.63 138.59C330.573 138.226 331.472 137.756 332.31 137.19Z" fill="white"/>
<path d="M334 135.26C334.723 135.149 335.462 135.261 336.12 135.58C336.61 135.79 337.4 135.58 338.4 134.95C338.62 134.82 338.84 134.67 339.08 134.51L338.7 134.06L338.38 133.68C337.94 134.019 337.436 134.266 336.898 134.405C336.36 134.544 335.799 134.573 335.25 134.49C335.25 134.49 337.51 133.74 337.54 132.71C337.129 132.186 336.755 131.635 336.42 131.06C336.26 130.76 336.1 130.45 335.96 130.13L335.89 129.95C335.834 129.797 335.771 129.647 335.7 129.5C335.263 128.482 334.575 127.591 333.7 126.91C333.602 126.829 333.499 126.756 333.39 126.69L333.3 126.64C332.924 126.735 332.544 126.809 332.16 126.86C331.335 126.971 330.503 127.025 329.67 127.02C329.06 127.02 328.39 127.02 327.67 126.94C327.67 126.94 328.59 126.94 329.78 126.74C330.511 126.654 331.235 126.524 331.95 126.35C332.21 126.29 332.47 126.22 332.71 126.14L332.37 125.8L332.1 125.94L332.26 125.7L331.95 125.38L331.54 124.93L330.67 124.84H330.49C330.01 124.84 328.94 124.84 328.08 124.84H326.87L327.87 125.26L329.09 125.77L327.73 125.51L325.15 125.03L324.79 124.96L324.05 124.82L324.82 124.47L324.62 124.36L323.82 123.89L322.82 123.28L322.16 122.87C321.75 122.82 321.27 122.8 321.09 122.99L321.01 123.07C321.247 123.305 321.497 123.525 321.76 123.73C322.249 124.125 322.767 124.482 323.31 124.8C322.56 124.592 321.853 124.253 321.22 123.8C321.03 123.676 320.85 123.539 320.68 123.39C320.52 123.56 320.34 123.77 320.14 124.01C319.573 124.638 319.144 125.377 318.88 126.18V126.39C319.11 127.01 319.33 127.62 319.4 127.89C319.53 128.46 321.02 131.38 320.23 133.17L319.87 134.02V134.09H319.92L320.57 133.91C320.57 133.91 320.34 134.08 319.97 134.3C319.124 134.869 318.146 135.213 317.13 135.3C316.895 135.304 316.664 135.245 316.46 135.129C316.256 135.013 316.086 134.844 315.97 134.64C315.66 134.18 315.459 133.655 315.383 133.106C315.307 132.557 315.357 131.997 315.53 131.47L315.72 131.6L316.89 132.39L316.53 129.88L316 130.67L315.64 128.48L315.2 125.76L315.07 125.02V124.81V125.03L314.72 127.25L314.54 128.32L314.16 130.68L313.63 129.88L313.27 132.38L314.47 131.56L314.63 131.45C314.804 131.976 314.855 132.535 314.781 133.085C314.706 133.634 314.508 134.159 314.2 134.62C314.075 134.832 313.895 135.006 313.678 135.123C313.461 135.239 313.216 135.294 312.97 135.28C311.995 135.174 311.061 134.831 310.25 134.28C309.93 134.1 309.71 133.94 309.63 133.9L310.31 134.07L309.92 133.16C309.13 131.37 310.61 128.45 310.74 127.87C310.81 127.6 311.03 126.99 311.26 126.37V126.16C310.996 125.357 310.566 124.618 310 123.99C309.8 123.75 309.61 123.54 309.45 123.36C309.277 123.513 309.093 123.653 308.9 123.78C308.27 124.232 307.566 124.571 306.82 124.78C307.361 124.46 307.879 124.102 308.37 123.71C308.64 123.49 308.89 123.26 309.12 123.04L309.04 122.97C308.85 122.78 308.38 122.79 307.97 122.85L307.31 123.27L306.31 123.84L305.49 124.31L305.24 124.45L306.02 124.8H305.89L304.89 124.99L302.31 125.48L300.94 125.74L302.16 125.22L303.16 124.8H301.97C301.12 124.8 300.05 124.8 299.56 124.8H299.37L298.49 124.89C298.32 125.09 298.06 125.37 297.78 125.66L297.94 125.91L297.67 125.77L297.55 125.89L297.36 126.08L297.71 126.18H297.82C298.64 126.4 299.476 126.558 300.32 126.65C301.5 126.81 302.41 126.85 302.41 126.85C301.69 126.85 301.03 126.93 300.41 126.93C299.688 126.933 298.967 126.897 298.25 126.82H298.03C297.595 126.769 297.164 126.688 296.74 126.58L296.66 126.64C295.643 127.328 294.853 128.303 294.39 129.44C294.311 129.584 294.244 129.735 294.19 129.89C294.167 129.952 294.141 130.012 294.11 130.07C293.944 130.483 293.744 130.881 293.51 131.26C293.207 131.748 292.873 132.215 292.51 132.66C292.51 133.66 294.81 134.43 294.81 134.43C294.288 134.521 293.753 134.505 293.237 134.383C292.721 134.261 292.236 134.036 291.81 133.72L291.67 133.64L290.96 134.46C291.346 134.733 291.751 134.98 292.17 135.2C292.425 135.37 292.711 135.486 293.011 135.543C293.312 135.6 293.621 135.595 293.92 135.53C294.58 135.205 295.324 135.094 296.05 135.21C296.093 134.896 296.071 134.577 295.985 134.273C295.899 133.968 295.751 133.685 295.55 133.44C295.66 133.44 296.39 133.8 297.31 134.22C298.683 134.805 300.019 135.473 301.31 136.22H300.51C300.938 136.939 301.305 137.691 301.61 138.47L301.68 138.68C301.787 138.982 301.864 139.293 301.91 139.61C301.914 139.677 301.914 139.743 301.91 139.81L301.75 139.67L301.24 139.26L300.98 139.04L300.82 139.41C300.705 139.684 300.609 139.964 300.53 140.25C300.53 140.25 300.53 140.31 300.53 140.33C300.397 140.757 300.33 141.202 300.33 141.65C300.431 141.858 300.582 142.036 300.77 142.17C300.858 142.232 300.963 142.265 301.07 142.265C301.177 142.265 301.282 142.232 301.37 142.17C301.85 141.91 301.93 141.17 301.94 140.86V140.71V140.83C301.94 140.91 301.94 141.02 302.01 141.15C302.128 141.581 302.302 141.995 302.53 142.38C302.61 142.513 302.719 142.626 302.85 142.71C302.914 142.758 302.99 142.789 303.07 142.8C303.155 142.811 303.24 142.789 303.31 142.74C303.436 142.649 303.533 142.524 303.59 142.38C303.788 141.824 303.9 141.24 303.92 140.65C304.022 141.422 304.241 142.174 304.57 142.88C304.638 143.013 304.722 143.137 304.82 143.25C304.91 143.358 305.018 143.45 305.14 143.52H305.58V141.88V140.6C305.578 140.64 305.578 140.68 305.58 140.72C305.58 140.91 305.66 141.31 305.76 141.72C305.92 142.36 306.16 143.07 306.53 143.24L306.63 143.29C306.766 143.349 306.896 143.419 307.02 143.5C307.49 143.76 308.02 144.12 308.32 144.32L308.54 144.47L308.27 142.53V142.12V141.63L308.18 140.55V140.27V140.17L307.47 138.74L308.22 139.06L309.9 136.42L308.64 139.67L308.8 140.42L308.93 141.06L309 141.38L308.65 141.5C308.65 141.5 308.94 144.2 310.38 144.43C310.479 144.445 310.58 144.445 310.68 144.43C312.14 144.32 311.07 143.13 310.75 142.81L310.66 142.72L310.71 141.9V141.35L310.79 140.05L310.91 138.25L311.13 140L311.37 142L312.11 143.33L312.49 144.02L314.33 144.66C314.33 144.66 314.51 144.01 314.62 143.33C314.721 142.901 314.741 142.457 314.68 142.02C314.68 141.81 314.53 141.49 314.41 141.14C314.29 140.79 314.18 140.47 314.07 140.14C313.96 139.81 313.83 139.49 313.79 139.36L314.31 140.23L314.71 140.9L315.2 141.73L315.66 140.92L316.06 140.23L316.55 139.39C316.55 139.52 316.39 139.81 316.25 140.16C316.11 140.51 316.02 140.78 315.91 141.09C315.8 141.4 315.68 141.8 315.62 142.01C315.568 142.451 315.591 142.897 315.69 143.33C315.8 144.01 315.98 144.65 315.98 144.65L317.81 144.01L318.21 143.28L318.93 141.98L319.16 140.13V140L319.3 138.93L319.38 138.26V138.63L319.48 140.09V140.17L319.58 141.67V141.94V142.76L319.47 142.87C319.13 143.22 318.14 144.36 319.57 144.46C319.669 144.475 319.771 144.475 319.87 144.46C321.31 144.23 321.6 141.53 321.6 141.53L321.24 141.42L321.31 141.09L321.44 140.47L321.6 139.71L320.34 136.47L322.02 139.1L322.77 138.78L322 140.36V140.44V140.7L321.91 141.79V142.25V142.69L321.65 144.69C321.65 144.69 322.47 144.12 323.17 143.69C323.291 143.611 323.418 143.541 323.55 143.48L323.7 143.4C324.06 143.24 324.31 142.55 324.48 141.92C324.65 141.29 324.69 140.78 324.7 140.75V142.08V143.66H325.06C325.186 143.587 325.297 143.492 325.39 143.38C325.387 143.353 325.387 143.327 325.39 143.3C325.465 143.199 325.531 143.092 325.59 142.98C325.911 142.279 326.127 141.534 326.23 140.77C326.256 141.361 326.37 141.944 326.57 142.5C326.618 142.617 326.69 142.722 326.78 142.81C326.817 142.852 326.864 142.883 326.916 142.902C326.969 142.922 327.025 142.928 327.08 142.92C327.172 142.907 327.258 142.869 327.33 142.81C327.446 142.727 327.545 142.621 327.62 142.5C327.827 142.145 327.988 141.765 328.1 141.37C328.1 141.2 328.18 141.05 328.2 140.95V140.82V140.98C328.2 141.31 328.3 141.98 328.77 142.28C328.86 142.342 328.966 142.374 329.075 142.374C329.184 142.374 329.29 142.342 329.38 142.28C329.563 142.144 329.71 141.965 329.81 141.76C329.815 141.385 329.764 141.011 329.66 140.65C329.648 140.579 329.631 140.509 329.61 140.44C329.61 140.44 329.61 140.39 329.61 140.36C329.53 140.09 329.43 139.82 329.33 139.57L329.18 139.2L328.91 139.42L328.38 139.87L328.24 139.98C328.235 139.927 328.235 139.873 328.24 139.82C328.281 139.479 328.358 139.144 328.47 138.82C328.47 138.75 328.47 138.68 328.54 138.61C328.839 137.83 329.203 137.078 329.63 136.36H328.84C330.133 135.615 331.469 134.948 332.84 134.36L334.6 133.58C334.393 133.806 334.233 134.071 334.13 134.359C334.027 134.648 333.982 134.954 334 135.26ZM301.78 133.34L301.36 132.74L301.93 133.01L302.35 132.48L302.9 134.21L303.29 135.46L301.78 133.34ZM307.88 129.07L307.5 129.67C307.219 130.092 307.013 130.558 306.89 131.05C306.932 132.196 307.086 133.334 307.35 134.45C307.394 135.08 307.326 135.713 307.15 136.32L306.86 138.47L306.63 136.47L306.96 134.9C306.96 134.9 306.62 131.72 306.22 131.2C305.82 130.68 304.32 130.37 304.22 131.08C304.216 131.976 304.296 132.87 304.46 133.75L302.92 131.02L300.29 132.02L298.42 131.27H297.86L298.19 131L298.48 131.05L300.34 131.36C300.34 131.36 303.76 129.16 306.04 129.03L307.04 128.51L307.6 128.2L308.1 127.93L308.32 128.46C308.32 128.46 308.1 128.7 307.86 129.07H307.88ZM328.19 133.31L326.66 135.46L327.06 134.19L327.59 132.48L328.01 133.01L328.58 132.73L328.19 133.31ZM331.54 131.26L329.67 132.01L327.04 131.01L325.51 133.73C325.669 132.852 325.746 131.962 325.74 131.07C325.64 130.36 324.12 130.67 323.74 131.19C323.357 132.395 323.112 133.64 323.01 134.9L323.35 136.46L323.12 138.46L322.82 136.32C322.645 135.713 322.58 135.08 322.63 134.45C322.884 133.333 323.034 132.195 323.08 131.05C322.97 130.589 322.777 130.152 322.51 129.76C322.408 129.563 322.295 129.373 322.17 129.19C321.9 128.76 321.66 128.43 321.66 128.43L321.87 127.9L322.48 128.23L322.97 128.49L323.9 129C326.19 129.13 329.61 131.32 329.61 131.32L331.46 131L331.75 130.95L331.84 131.02L332.1 131.25L331.54 131.26Z" fill="white"/>
<path d="M332.68 125.07L331.68 124.95L332.4 125.45L332.68 125.07Z" fill="white"/>
<path d="M306.33 122.77C306.54 122.77 307.18 122.67 307.65 122.6C308.71 121.6 309.07 119.45 309 118.45C308.985 118.287 308.985 118.123 309 117.96C308.23 119.2 306 122.77 306.33 122.77Z" fill="white"/>
<path d="M322.24 122.61C322.677 122.689 323.118 122.746 323.56 122.78C323.85 122.78 321.66 119.22 320.88 117.98C320.895 118.143 320.895 118.307 320.88 118.47C320.82 119.46 321.19 121.66 322.24 122.61Z" fill="white"/>
<path d="M334.72 124.88C334.547 124.82 334.362 124.801 334.18 124.823C333.998 124.846 333.823 124.91 333.67 125.01C333.357 125.248 333.022 125.455 332.67 125.63L333.16 125.97C333.787 125.79 334.336 125.407 334.72 124.88Z" fill="white"/>
<path d="M126.68 250.6C126.713 250.54 126.74 250.476 126.76 250.41L126.68 250.6Z" fill="white"/>
<path d="M136.1 245.09C134.01 246.25 132.26 246.72 130.88 246.31C132.855 248.246 135.514 249.325 138.28 249.31C133.35 261.01 130.63 267.97 129.99 270.01L129.91 270.11C123.55 289 125.52 297.27 136.17 295.39C141.28 294.5 147.09 290.82 153.75 284.64L155 283.46C154.91 281.138 155.105 278.814 155.58 276.54C152.77 279.46 150.2 281.39 147.84 282.28C145.48 283.17 144.03 282.45 143.69 279.97C143.32 277.33 144.22 273.24 146.38 267.76C149.633 259.847 152.966 251.963 156.38 244.11L150.97 237.19L158.74 238.7C160.8 234 162.893 229.317 165.02 224.65C166.786 220.743 168.58 216.847 170.4 212.96C172.893 207.627 175.42 202.293 177.98 196.96C178.87 195.18 179.71 193.5 180.5 191.9C186.88 178.98 190.5 170.9 196.65 156.25C193.658 156.431 190.69 156.904 187.79 157.66C182.37 159.13 178.4 161.66 176.41 165.53V165.46C175.416 167.367 174.477 169.197 173.59 170.95C169.34 179.24 166.13 185.68 164 190.2L163.47 191.31C151.98 216.7 145.78 232.5 143.71 236.78C142.079 240.26 139.424 243.16 136.1 245.09Z" fill="white"/>
<path d="M209.29 169.1L209.43 168.66C208.182 168.174 206.859 167.91 205.52 167.88L209.29 169.1Z" fill="white"/>
<path d="M174.33 238.22L174.39 238.44V238.16L174.33 238.22Z" fill="white"/>
<path d="M196.29 189.62C196.325 190.128 196.395 190.632 196.5 191.13C196.598 191.899 196.893 192.629 197.355 193.251C197.817 193.873 198.432 194.365 199.14 194.68C203.64 196.41 206.93 193.8 209.25 186.94C210.189 184.336 210.498 181.546 210.15 178.8C209.79 176.44 208.96 174.95 207.56 174.37C203.64 172.71 200.25 175.17 197.56 181.79C196.613 184.064 196.176 186.519 196.28 188.98C196.26 189.2 196.27 189.46 196.29 189.62Z" fill="white"/>
<path d="M168.14 259.69C166.98 262.216 165.76 265.036 164.48 268.15C163.402 270.698 162.513 273.321 161.82 276C160.82 279.89 160.69 283.09 161.34 285.58C161.721 287.232 162.621 288.718 163.91 289.82C165.665 291.197 167.851 291.905 170.08 291.82C172.316 291.887 174.543 291.492 176.62 290.66C180.444 289.186 183.998 287.091 187.14 284.46C188.86 283.005 190.455 281.409 191.91 279.69C194.267 276.888 196.331 273.852 198.07 270.63C199.359 268.277 200.52 265.857 201.55 263.38C201.42 261.43 201.35 260.45 201.21 258.5C199.769 261.598 198.135 264.604 196.32 267.5C194.419 270.576 192.222 273.46 189.76 276.11C189.16 276.776 188.55 277.386 187.93 277.94C186.939 278.884 185.857 279.729 184.7 280.46C182.38 281.89 180.59 281.95 179.42 280.67C178.02 279.13 178.13 276.01 179.71 271.37C180.09 270.236 180.56 269.016 181.12 267.71L183.12 263.16C184.7 259.46 186.54 255.16 188.6 250.35C192.5 241.13 197.19 229.83 202.42 216.35C202.53 216.07 202.64 215.79 202.73 215.52C202.91 215.015 203.063 214.501 203.19 213.98C203.388 213.198 203.492 212.396 203.5 211.59C203.501 211.309 203.48 211.028 203.44 210.75C203.321 209.543 202.791 208.413 201.94 207.55C200.22 205.81 197.19 205.1 192.54 205.36C189.54 205.53 187.96 205.6 184.74 205.7C183.89 207.48 183.47 208.37 182.61 210.15C186.48 210.06 188.36 211.15 188.61 213.42C188.79 215.25 187.84 218.67 185.61 223.59C184.61 225.98 183.61 228.13 182.78 230.02C180.78 234.37 179.4 237.4 178.58 239.13C177.875 240.567 176.869 241.836 175.63 242.85C175.37 243.07 175.1 243.29 174.82 243.49C174.391 243.815 173.943 244.115 173.48 244.39C172.306 245.117 171.028 245.66 169.69 246C169.685 245.97 169.685 245.94 169.69 245.91L169.62 246.02C168.309 246.339 166.945 246.373 165.62 246.12C166.316 247.022 167.182 247.78 168.17 248.35C168.976 248.83 169.849 249.187 170.76 249.41C171.548 249.606 172.35 249.736 173.16 249.8C172.71 250.6 172.24 251.46 171.75 252.39C170.583 254.49 169.38 256.923 168.14 259.69Z" fill="white"/>
<path d="M209.74 238.14L209.55 237.54C209.435 237.812 209.301 238.076 209.15 238.33L209.74 238.14Z" fill="white"/>
<path d="M196.11 297.08C195.8 296.7 195.5 296.31 195.2 295.92L195.14 297.15L196.11 297.08Z" fill="white"/>
<path d="M246.46 225.52L256.58 229.57C258.19 223.989 259.327 218.282 259.98 212.51C260.68 206.07 260.27 201.61 258.67 199.28C257.36 197.37 254.96 196.66 251.54 197.28C248.54 197.8 247.11 198.06 244.18 198.6L242.76 203.25C245.33 202.78 247.04 203.25 247.88 204.52C248.59 205.63 248.88 207.61 248.79 210.44C248.499 215.53 247.719 220.58 246.46 225.52Z" fill="white"/>
<path d="M234.51 272.64C236.08 270.76 237.61 268.76 239.11 266.64C239.72 265.78 240.32 264.89 240.91 263.98C241.5 263.07 241.99 262.31 242.53 261.45C246.563 254.993 249.968 248.165 252.7 241.06C252.2 240.57 251.732 240.049 251.3 239.5L244.9 231.33C244.47 232.83 244 234.33 243.5 235.96C242.58 238.289 240.954 240.271 238.85 241.63C238.366 241.981 237.809 242.219 237.22 242.326C236.632 242.433 236.027 242.407 235.45 242.25C236.006 243.033 236.714 243.696 237.532 244.199C238.35 244.702 239.261 245.036 240.21 245.18C238.65 249.093 236.983 252.76 235.21 256.18C234.67 257.24 234.12 258.27 233.57 259.28C232.237 261.7 230.833 263.99 229.36 266.15C229 266.69 228.63 267.22 228.26 267.74C223.36 274.6 218.37 279.13 213.17 281.26C216.848 272.64 219.791 263.725 221.97 254.61C222.93 250.53 223.703 246.506 224.29 242.54C224.6 240.39 224.87 238.26 225.08 236.15C225.347 233.483 225.533 230.816 225.64 228.15C226.012 222.327 225.595 216.481 224.4 210.77C223.33 206.34 221.7 203.62 219.57 202.77C219.463 202.721 219.353 202.681 219.24 202.65C218.229 202.293 217.133 202.254 216.1 202.54C215.017 202.838 213.999 203.337 213.1 204.01C211.01 205.51 209.8 207.1 209.54 208.76C209.446 209.301 209.402 209.85 209.41 210.4C209.421 210.61 209.421 210.82 209.41 211.03V211.1C209.474 211.743 209.701 212.359 210.07 212.89C210.19 211.29 210.78 210.72 211.79 211.16C212.8 211.6 213.73 212.79 214.36 214.63C215.36 217.63 215.9 221.82 216.16 226.9C216.479 230.379 216.375 233.885 215.85 237.34C215.694 238.13 215.452 238.901 215.13 239.64C214.123 242.108 212.377 244.204 210.13 245.64C209.028 246.413 207.716 246.831 206.37 246.84C206.002 246.823 205.64 246.742 205.3 246.6C205.652 247.013 206.033 247.401 206.44 247.76C207.482 248.697 208.739 249.363 210.099 249.699C211.459 250.036 212.881 250.033 214.24 249.69C213.573 253.59 212.747 257.69 211.76 261.99L211.34 263.84C211.335 263.873 211.335 263.906 211.34 263.94C209.87 270.32 208.66 274.94 207.89 277.6C207.408 279.387 206.81 281.14 206.1 282.85C205.877 283.378 205.616 283.889 205.32 284.38C204.494 285.868 203.19 287.034 201.62 287.69C201.56 288.84 201.54 289.42 201.48 290.57C204.641 290.348 207.771 289.802 210.82 288.94C220 286.4 227.63 280.83 234.51 272.64Z" fill="white"/>
<path d="M317.55 213.82C316.02 217.345 313.941 220.606 311.39 223.48L320 225.06C324.8 217.51 326.73 210.6 326.15 204.71C325.57 198.82 322.65 194.8 317.03 192.63C314.3 191.57 310.7 191.21 306.22 191.43C301.128 191.672 296.139 192.941 291.55 195.16C279.55 200.92 271.55 211.67 265.55 226.74C265.22 227.58 264.87 228.5 264.55 229.51C263.798 230.992 262.835 232.356 261.69 233.56C261.04 234.233 260.291 234.803 259.47 235.25C258.974 235.585 258.411 235.808 257.821 235.903C257.23 235.998 256.626 235.963 256.05 235.8C257.048 237.147 258.449 238.142 260.05 238.64C260.61 238.809 261.187 238.916 261.77 238.96C258.88 251.56 259.37 261.81 263.34 269.75C264.843 272.909 267.243 275.555 270.24 277.36C273.085 278.991 276.394 279.621 279.64 279.15C287.26 278.15 296.35 273.39 307.41 264.96C309.24 263.56 310.98 262.11 312.61 260.6C313.364 257.455 314.367 254.376 315.61 251.39L316.27 249.72C311.351 254.805 305.896 259.341 300 263.25C294.23 267.14 289.31 269.69 285.07 270.85C280.43 272.11 276.87 271.67 274.17 269.37C269.68 265.52 269.1 257.27 272.28 244.57C278.43 246.67 285.38 246.45 293.52 244.18C301.66 241.91 309.15 238.06 314.84 231.87L309.78 225.2C306.506 228.482 302.806 231.311 298.78 233.61C288.99 239.34 280.78 241.73 273.42 240.46C277.54 226.76 283.11 215.73 290.78 207.62C296.59 201.49 302.69 198 308.66 197C313.66 196.16 316.97 196.84 318.94 199.21C319.79 200.29 320.14 202.15 319.94 204.73C319.681 207.876 318.872 210.953 317.55 213.82Z" fill="white"/>
<path d="M356.81 198.4C358.41 194.25 358.24 191.33 356.33 189.62C354.59 188.07 351.55 187.71 347.07 188.47C344.16 188.97 342.69 189.21 339.7 189.63C338.91 191.5 338.52 192.44 337.7 194.3C341.26 193.82 343.06 194.7 343.27 196.95C343.44 198.77 342.54 202.29 340.47 207.44C338.4 212.59 336.85 216.7 335.66 219.64C334.96 221.37 334.41 222.72 334.01 223.64C333.029 225.929 331.451 227.911 329.44 229.38C328.445 230.241 327.276 230.878 326.013 231.247C324.75 231.616 323.422 231.709 322.12 231.52C322.23 231.66 322.34 231.8 322.47 231.94C323.816 233.528 325.728 234.529 327.8 234.73C328.238 234.788 328.679 234.814 329.12 234.81C327.42 238.283 325.42 242.863 323.12 248.55C322.453 250.13 321.787 251.797 321.12 253.55C319.795 256.777 318.79 260.127 318.12 263.55C317.147 269.063 317.97 272.94 320.59 275.18C321.395 275.858 322.327 276.371 323.331 276.688C324.335 277.006 325.391 277.122 326.44 277.03C328.517 276.951 330.545 276.371 332.35 275.34C336.417 273.117 340.081 270.227 343.19 266.79C343.036 264.79 343.086 262.78 343.34 260.79L342.75 261.46C339.06 265.56 336.39 266.76 334.88 265.09C333.37 263.42 333.83 258.95 336.43 251.97C340.58 240.84 347.52 223.1 356.81 198.4Z" fill="white"/>
<path d="M362.13 155.8C358.06 154.58 354.66 157.43 351.98 164.35C351.061 166.685 350.633 169.183 350.72 171.69C350.83 174.76 351.72 176.57 353.57 177.07C358.05 178.29 361.46 175.3 363.89 168.18C364.863 165.549 365.186 162.722 364.83 159.94C364.46 157.62 363.58 156.22 362.13 155.8Z" fill="white"/>
<path d="M354.11 221.24C354.259 221.225 354.41 221.225 354.56 221.24C354.64 221.02 354.72 220.8 354.81 220.58L354.72 220.65C354.407 220.876 354.072 221.071 353.72 221.23C353.85 221.223 353.98 221.226 354.11 221.24Z" fill="white"/>
<path d="M365.56 177.98L365.28 178.04L365.08 178.57C365.24 178.38 365.4 178.19 365.56 177.98Z" fill="white"/>
<path d="M407.69 196.02C406.69 194.17 405.31 193.36 403.6 193.67C402.126 193.994 400.813 194.826 399.89 196.02C398.708 197.333 397.961 198.981 397.754 200.736C397.546 202.491 397.887 204.267 398.73 205.82C399.013 206.507 399.462 207.112 400.036 207.584C400.61 208.055 401.292 208.376 402.02 208.52C402.836 208.672 403.676 208.645 404.48 208.44C405.18 206.707 405.94 204.993 406.76 203.3L407.1 202.61C406.771 203.085 406.292 203.437 405.74 203.61C406.837 202.638 407.632 201.371 408.03 199.96C408.428 198.652 408.307 197.241 407.69 196.02Z" fill="white"/>
<path d="M355.23 272.84C358.606 272.558 361.746 270.99 364 268.46C366.851 265.342 368.457 261.285 368.51 257.06C367.51 259.15 366.58 260.36 365.69 260.65C365.409 260.743 365.102 260.721 364.837 260.59C364.571 260.459 364.368 260.229 364.27 259.95H364.21C362.95 258.19 363.49 253.8 365.82 246.74C366.766 243.94 368.736 238.367 371.73 230.02C375.683 219.103 381.208 208.822 388.13 199.5C395.8 189.06 401.97 184.35 406.41 185.32C407.349 185.486 408.224 185.906 408.94 186.536C409.656 187.166 410.185 187.98 410.47 188.89C411.012 190.85 411.036 192.918 410.54 194.89C410.365 195.713 410.141 196.524 409.87 197.32C409.95 197.17 410.04 197.02 410.13 196.87C410.67 195.94 411.22 195.03 411.79 194.14C412.66 192.76 413.56 191.41 414.5 190.14C415.06 189.35 415.64 188.58 416.23 187.83C416.218 186.406 415.9 185.002 415.296 183.713C414.692 182.423 413.816 181.28 412.73 180.36C411.778 179.576 410.704 178.954 409.55 178.52L409.01 178.33C406.16 177.43 402.64 178.07 398.51 180.25C393.67 182.8 389.26 186.9 385.26 192.5C387.393 187.22 387.346 183.737 385.12 182.05C383.48 180.803 380.97 180.573 377.59 181.36C374.45 182.09 372.88 182.46 369.72 183.18L367.84 188.09C370.84 187.41 372.58 187.96 373 189.7C373.46 191.65 372.57 195.49 370.39 201.12C368.19 206.93 367.09 209.83 364.88 215.62C363.17 220.34 360.88 223.67 358.16 225.62C356.16 227.03 354.48 227.55 353.16 227.13C353.974 227.987 354.954 228.668 356.041 229.132C357.128 229.596 358.298 229.834 359.48 229.83C358.086 233.463 356.883 236.593 355.87 239.22C355.13 241.16 354.496 242.827 353.97 244.22C352.97 246.74 352.42 248.39 352.19 249.22C351.251 252.077 350.476 254.985 349.87 257.93C348.916 262.597 348.823 266.183 349.59 268.69C349.894 269.933 350.626 271.03 351.657 271.788C352.688 272.547 353.952 272.919 355.23 272.84Z" fill="white"/>
<path d="M435.65 242.65L436 241.57C435.65 241.87 435.32 242.16 435 242.43L435.65 242.65Z" fill="white"/>
<path d="M457.86 170.62C454.552 171.045 451.28 171.714 448.07 172.62C442.492 174.136 437.238 176.661 432.57 180.07C428.742 182.936 425.274 186.253 422.24 189.95L422.08 190.14C419.558 193.219 417.294 196.5 415.31 199.95C414.99 200.49 414.68 201.04 414.38 201.59C413.6 203.02 412.86 204.45 412.18 205.88C411.04 208.26 410.023 210.643 409.13 213.03C407.426 217.567 406.154 222.254 405.33 227.03C404.505 231.53 404.253 236.116 404.58 240.68C404.726 242.548 405.027 244.401 405.48 246.22C405.723 247.235 406.02 248.236 406.37 249.22C407.062 251.176 408.148 252.969 409.56 254.49C410.544 255.537 411.697 256.413 412.97 257.08C416.18 258.79 420.21 259.3 425.17 258.72C430.973 257.996 436.594 256.21 441.75 253.45C444.589 251.955 447.31 250.247 449.89 248.34C449.919 250.534 450.699 252.651 452.1 254.34C452.884 255.159 453.828 255.809 454.874 256.248C455.92 256.686 457.046 256.905 458.18 256.89C458.793 256.93 459.407 256.93 460.02 256.89C464.6 256.58 470.02 253.63 476.02 248.19C482.54 242.34 489.34 233.93 496.02 223.05L493.47 220.22C483.57 235.07 475.98 242.91 470.99 244.5C468.85 245.19 467.61 244.33 467.34 242.07C467.06 239.63 467.95 235.85 470.02 230.89C479.49 208.23 489.25 185.22 498.48 162.22C489.73 165.12 483.63 168.69 480.42 173.64V173.55H480.34C479.251 172.832 478.075 172.257 476.84 171.84C472.851 170.472 468.643 169.858 464.43 170.03C463.03 170.03 461.6 170.16 460.12 170.31C459.4 170.46 458.63 170.52 457.86 170.62ZM465.69 176.08C467.247 176.582 468.647 177.481 469.75 178.69C473.15 182.416 472.933 188.983 469.1 198.39C468.88 198.87 468.547 199.65 468.1 200.73C466.33 204.67 464.1 207.57 461.38 209.33C460.938 209.636 460.474 209.907 459.99 210.14C457.62 211.3 455.57 211.52 453.89 210.81C455.773 212.803 458.282 214.091 461 214.46C461.24 214.46 461.48 214.52 461.73 214.54C461.47 215.1 461.17 215.77 460.83 216.54C460.67 216.88 460.51 217.25 460.33 217.63C459.79 218.79 459.39 219.63 459.17 219.99C455.77 226.989 451.514 233.539 446.5 239.49C444.909 241.348 443.216 243.118 441.43 244.79C436.19 249.7 431.28 252.46 426.64 252.98C423.29 253.36 420.76 252.83 418.97 251.34C416.8 249.46 415.62 246.43 415.38 242.22C415.256 239.698 415.373 237.169 415.73 234.67C416.883 226.753 419.152 219.04 422.47 211.76C422.85 210.89 423.24 210.01 423.66 209.13C426.572 202.748 430.235 196.735 434.57 191.22C435.01 190.66 435.46 190.12 435.92 189.59C437.08 188.256 438.28 186.97 439.52 185.73C442.377 182.853 445.671 180.447 449.28 178.6C452.284 177.05 455.543 176.054 458.9 175.66L459.83 175.57C461.798 175.348 463.79 175.522 465.69 176.08Z" fill="white"/>
<path d="M235.63 349.97L248.21 357.98L250.97 353.64L233.08 342.25L212.43 374.68L230.32 386.07L233.08 381.74L220.5 373.73L226.82 363.8L238 370.92L240.76 366.59L229.58 359.47L235.63 349.97Z" fill="white"/>
<path d="M516.7 158.15C516.962 158.237 517.239 158.264 517.513 158.23C517.786 158.195 518.049 158.099 518.28 157.95C525.22 154.39 531.56 148.07 537.38 139.32C543.098 130.775 547.331 121.325 549.9 111.37C550.61 109.3 551 105.99 551.04 101.47C551.1 95.5499 549.79 92.6799 547.18 92.8999C544.27 93.1399 542.01 94.7899 540.39 97.6999C538.863 100.598 538.063 103.824 538.06 107.1C537.918 112.304 537.289 117.483 536.18 122.57C534.52 130.28 532 136.57 528.59 141.24C525.822 144.994 522.862 148.602 519.72 152.05C517.72 154.38 516.61 156.05 516.4 156.92C516.26 157.54 516.36 157.98 516.7 158.15Z" fill="white"/>
<path d="M563.25 173.65C565.97 174.11 567.7 174.75 568.43 175.49C567.538 176.389 566.487 177.114 565.33 177.63C564.428 178.18 563.386 178.458 562.33 178.43C563.2 179.38 564.91 179.98 567.33 180.13C569.06 180.321 570.81 180.133 572.46 179.58C574.07 183.08 573.9 188.28 571.99 195.17C570.247 201.858 566.994 208.057 562.48 213.29C557.87 218.52 553.31 221.72 548.83 222.84C544.15 224 540.52 222.5 537.97 218.19C535.66 214.29 535.97 208.19 538.88 199.99C541.33 193.08 544.07 187.99 547.1 184.88C549.51 182.36 551.34 181.42 552.55 182.05C553.76 182.68 554.05 185.05 553.23 188.98C551.944 194.851 549.772 200.492 546.79 205.71C547.28 206.71 547.52 207.15 548 208.11C553.715 203.144 557.881 196.639 560 189.37C560.966 186.53 561.176 183.487 560.61 180.54C560.376 179.359 559.804 178.271 558.962 177.41C558.12 176.548 557.046 175.951 555.87 175.69C553.35 175.06 550.42 175.69 547.22 177.75C543.804 180.073 540.861 183.026 538.55 186.45C535.736 190.422 533.556 194.808 532.09 199.45C530.487 204.263 529.808 209.335 530.09 214.4C530.59 222.694 533.32 227.694 538.28 229.4C542.19 230.74 547.28 229.93 553.46 227.4C559.796 224.564 565.72 220.884 571.07 216.46C578.227 210.816 584.736 204.397 590.48 197.32C599.48 186.24 605.61 177.76 608.65 170.66C607.65 169.92 607.08 169.55 606.04 168.83C604.75 171.68 601.22 176.02 595.68 182.36C590.39 188.44 586.42 192.84 583.68 195.14C586.87 187.23 586.91 180.53 583.92 175.06C581.57 170.76 578.34 168.23 574.29 167.66C569.18 166.94 566.18 166.5 565.2 166.08C562.2 164.71 561.03 161.73 561.66 157.08C562.285 152.342 564.515 147.962 567.98 144.67C570.386 142.218 573.403 140.454 576.72 139.56C579.72 138.82 582.01 139.04 583.6 140.12C585.71 141.56 586.38 144.54 585.52 148.96C585.018 151.895 583.69 154.625 581.69 156.83C580.167 158.475 578.235 159.687 576.09 160.34C578.76 158.48 580.09 156.34 580.03 153.82C580.081 152.862 579.856 151.91 579.381 151.076C578.906 150.243 578.201 149.564 577.35 149.12C575.68 148.29 573.71 148.64 571.47 150.12C570.209 151.006 569.135 152.133 568.312 153.435C567.488 154.738 566.93 156.191 566.67 157.71C565.97 161.01 567 163.16 569.84 164.11C572.59 164.944 575.542 164.817 578.21 163.75C581.442 162.469 584.329 160.448 586.64 157.85C589.476 155.046 591.483 151.512 592.44 147.64C592.947 145.718 592.953 143.697 592.458 141.772C591.962 139.846 590.982 138.079 589.61 136.64C586.54 133.32 582.16 132.16 576.61 133.56C570.8 135.01 565.61 138.44 561.1 143.64C557.073 148.1 554.259 153.52 552.93 159.38C552.2 162.86 552.58 165.85 554.15 168.31C555.85 171.17 558.9 172.87 563.25 173.65Z" fill="white"/>
<path d="M266.87 359.99C264.677 359.091 262.319 358.665 259.95 358.74C257.907 358.807 255.928 359.463 254.25 360.63C252.584 361.832 251.319 363.508 250.62 365.44C249.781 367.325 249.597 369.438 250.1 371.44C250.571 373.107 251.467 374.623 252.7 375.84C254.262 377.323 255.933 378.687 257.7 379.92C259.031 380.848 260.31 381.85 261.53 382.92C262.393 383.68 263.077 384.623 263.53 385.68C263.938 386.765 263.909 387.966 263.45 389.03C263.194 389.757 262.777 390.416 262.23 390.958C261.682 391.5 261.019 391.911 260.29 392.16C258.535 392.693 256.646 392.565 254.98 391.8C253.276 391.275 251.842 390.11 250.98 388.55C250.28 387.146 250.151 385.526 250.62 384.03L244.33 381.61C243.552 383.513 243.398 385.614 243.89 387.61C244.414 389.645 245.491 391.497 247 392.96C248.713 394.624 250.757 395.909 253 396.73C255.273 397.669 257.74 398.043 260.19 397.82C262.285 397.62 264.283 396.841 265.96 395.57C267.524 394.398 268.724 392.806 269.42 390.98C270.257 389.094 270.44 386.982 269.94 384.98C269.463 383.271 268.554 381.715 267.3 380.46C265.73 378.948 264.06 377.545 262.3 376.26C261.008 375.33 259.769 374.329 258.59 373.26C257.766 372.524 257.113 371.616 256.68 370.6C256.475 370.11 256.369 369.585 256.369 369.055C256.369 368.524 256.475 367.999 256.68 367.51C256.905 366.797 257.294 366.147 257.815 365.61C258.335 365.074 258.974 364.666 259.68 364.42C261.208 363.977 262.842 364.083 264.3 364.72C265.942 365.259 267.338 366.365 268.24 367.84C268.616 368.438 268.862 369.109 268.96 369.809C269.058 370.508 269.007 371.221 268.81 371.9L275.3 374.41C275.774 373.001 275.937 371.506 275.776 370.028C275.616 368.55 275.136 367.124 274.37 365.85C272.608 363.101 269.963 361.034 266.87 359.99Z" fill="white"/>
<path d="M280.94 371.05L291.08 372.69L285.78 405.52L291.99 406.53L297.3 373.7L307.39 375.33L308.21 370.26L281.76 365.98L280.94 371.05Z" fill="white"/>
<path d="M336.91 401.56L339.09 399.05C341.61 396.15 343.67 393.623 345.27 391.47C346.884 389.274 348.198 386.873 349.18 384.33C350.178 381.845 350.523 379.146 350.18 376.49C350.043 374.866 349.572 373.287 348.796 371.853C348.02 370.42 346.955 369.162 345.67 368.16C343.143 366.26 339.886 365.57 335.9 366.09C332.528 366.411 329.413 368.028 327.21 370.6C325.11 373.12 324.276 376.453 324.71 380.6L330.71 379.82C330.415 377.824 330.833 375.788 331.89 374.07C332.425 373.291 333.129 372.642 333.95 372.173C334.771 371.704 335.687 371.426 336.63 371.36C338.863 371.067 340.576 371.473 341.77 372.58C343.092 373.924 343.887 375.699 344.01 377.58C344.249 379.856 343.833 382.153 342.81 384.2C341.654 386.612 340.221 388.88 338.54 390.96C336.766 393.18 334.323 396.033 331.21 399.52L327.71 403.43L328.31 407.98L355 404.46L354.33 399.25L336.91 401.56Z" fill="white"/>
<path d="M377.36 360.46C374.12 357.793 370.023 357.36 365.07 359.16C360.117 360.96 357.233 363.906 356.42 368C355.613 372.106 356.28 377.16 358.42 383.16C360.56 389.16 363.28 393.53 366.58 396.27C369.833 398.936 373.937 399.39 378.89 397.63C383.843 395.87 386.72 392.903 387.52 388.73C388.32 384.59 387.627 379.49 385.44 373.43C383.253 367.37 380.56 363.046 377.36 360.46ZM381.27 388.61C380.309 390.285 378.784 391.565 376.967 392.221C375.15 392.876 373.16 392.865 371.35 392.19C369.677 391.27 368.31 389.879 367.42 388.19C366.167 385.904 365.11 383.515 364.26 381.05C363.377 378.678 362.708 376.231 362.26 373.74C361.907 371.876 362.08 369.951 362.76 368.18C363.702 366.499 365.219 365.214 367.032 364.562C368.845 363.909 370.833 363.934 372.63 364.63C374.286 365.569 375.645 366.955 376.55 368.63C377.796 370.837 378.837 373.153 379.66 375.55C380.581 377.991 381.29 380.507 381.78 383.07C382.159 384.93 381.981 386.86 381.27 388.62V388.61Z" fill="white"/>
<path d="M381.16 353.22L384.01 358.2L388.47 355.65L405.64 385.6L411.15 382.44L391.13 347.51L381.16 353.22Z" fill="white"/>
<path d="M416.47 328.62L395.78 345.38L399.16 349.55L415.04 336.68L424.85 373.44L429.79 369.44L419.42 332.27L416.47 328.62Z" fill="white"/>
<path d="M492 278.86C477.33 286.06 457.55 292.17 435.2 297.33C431.753 298.13 428.24 298.903 424.66 299.65C419.02 300.85 413.25 301.98 407.39 303.07C393.39 305.65 378.81 307.94 364.23 309.95L362.71 310.16C355.1 311.16 347.49 312.16 339.94 313.06L338.46 313.23C331.05 314.1 323.71 314.91 316.51 315.65L315.04 315.8C307.18 316.6 299.49 317.32 292.04 317.97L290.51 318.11C275.3 319.43 261.25 320.45 249.13 321.22C242.91 321.61 237.21 321.94 232.13 322.22C228.32 322.41 224.85 322.58 221.77 322.71C215.21 322.99 210.43 323.13 207.86 323.15C185.46 323.34 106.62 329.37 94.7399 330.91C82.8599 332.45 66.6099 342.68 66.6099 342.68C66.4354 342.074 66.3853 341.44 66.4626 340.814C66.54 340.189 66.7431 339.585 67.0599 339.04C61.5399 340.22 40.9999 348.91 40.3599 349.18C66.2499 327.18 156.63 318.45 215.02 317.09C217.687 317.017 220.277 316.967 222.79 316.94H225.04C230.54 316.86 235.967 316.713 241.32 316.5C249.32 316.2 257.14 315.77 264.96 315.24L266.62 315.12C274.94 314.54 283.23 313.83 291.62 313.02L293.16 312.87C302.06 312 311.05 311.02 320.27 309.96C325.74 309.32 331.27 308.65 336.93 307.96C344.93 306.96 353.06 305.96 361.51 304.88L361.92 304.83C369.92 303.83 378.07 302.77 386.58 301.7L388.24 301.49L400.01 300.03C404.21 299.51 408.373 298.897 412.5 298.19C417.99 297.26 423.4 296.19 428.71 294.96C432.17 294.167 435.583 293.33 438.95 292.45C471.463 283.794 502.756 271.077 532.09 254.6C527.69 256.6 496.65 266.39 447.68 279.05C444.7 279.817 441.657 280.593 438.55 281.38C433.803 282.593 428.907 283.823 423.86 285.07C416.173 286.963 408.173 288.897 399.86 290.87C394.56 292.12 388.95 293.28 383.09 294.35L381.48 294.64C376.81 295.48 371.98 296.26 367.03 297C356.35 298.59 345.03 299.95 333.47 301.14H333.37C327.95 301.687 322.467 302.203 316.92 302.69H316.85C305.93 303.69 294.85 304.46 283.85 305.18L270.77 306L269.12 306.09C255.76 306.87 242.6 307.53 230.04 308.15L215.8 308.84L206.86 309.27C179.1 310.63 156.06 311.94 142.86 314.08C101.41 320.82 69.9699 322 39.2699 339.18C18.1599 351 -1.73005 375.83 0.269946 408.63C1.61995 430.55 11.0799 457.75 46.2699 465.63C134.16 485.31 112.39 404.14 112.39 404.14C111.95 418.25 109.94 423.35 104.64 431.36C98.1699 441.14 88.1099 437.01 88.1099 437.01C91.5899 419.73 79.9699 413.37 79.9699 413.37C81.6699 427.75 66.7499 431.63 66.7499 431.63C72.8299 407.25 63.1799 404.63 63.1799 404.63C45.5799 428.84 23.4399 405.82 21.7199 392.18C19.9999 378.54 40.3299 366.46 40.3299 366.46C53.9099 390.98 76.7999 374.05 76.7999 374.05C57.4499 361.8 77.0599 344.44 77.0599 344.44C81.4799 371.39 112.63 364.27 112.63 364.27C106.86 341.89 148.71 336.18 174.01 334.12C184.3 333.3 205.85 333.95 236.88 333.21C240.993 333.11 245.27 332.983 249.71 332.83C257.01 332.583 264.747 332.233 272.92 331.78C285.92 331.06 299.92 330.05 315.01 328.62L316.48 328.49C324.42 327.73 332.63 326.847 341.11 325.84L342.58 325.66C356.073 324.04 370.203 322.06 384.97 319.72C392.417 318.52 400.03 317.22 407.81 315.82C411.983 315.06 416.197 314.267 420.45 313.44C422.817 312.987 425.2 312.52 427.6 312.04C561.51 285.25 622.95 190.04 623.9 188.58C570.12 242.57 563 244.02 492 278.86ZM46.2199 430.59C39.4004 431.808 32.3702 430.556 26.3899 427.06C33.9499 445.23 64.6399 446.23 64.6399 446.23C43.8699 449.23 33.4999 441.02 32.9799 440.6C44.6199 456.66 86.7499 455.76 86.7499 455.76C27.7499 474.42 16.6099 414.39 16.3199 412.76C20.6999 422.92 46.2199 430.59 46.2199 430.59Z" fill="white"/>
</svg>
