<?xml version="1.0" encoding="utf-8"?>
<!-- Generator: Adobe Illustrator 24.2.0, SVG Export Plug-In . SVG Version: 6.00 Build 0)  -->
<svg version="1.1" id="Camada_1" xmlns="http://www.w3.org/2000/svg" xmlns:xlink="http://www.w3.org/1999/xlink" x="0px" y="0px"
	 viewBox="0 0 623.8 468.4" style="enable-background:new 0 0 623.8 468.4;" xml:space="preserve">
<style type="text/css">
	.st0{fill:#FFFFFF;}
</style>
<rect width="623.8" height="468.4"/>
<g id="Camada_2_1_">
	<g id="Camada_1-2">
		<path class="st0" d="M411.3,265.7c2.2-0.6,4.4-1.1,6.5-1.7c1.1-2.2,2.2-4.5,3.2-6.8c-1.6-0.2-3.2-0.9-4.6-1.8
			C414.9,258.9,413.2,262.4,411.3,265.7z"/>
		<path class="st0" d="M206.1,240.4c0.6-0.1,1.1-0.4,1.6-0.7c0.3-0.2,0.7-0.4,1-0.7l0.1-0.1c0.4-0.3,0.8-0.8,1-1.3
			c0.1-0.3,0.3-0.6,0.4-0.9c-0.6-2.7-1.1-5.4-1.5-8.1c-0.3,0.6-0.6,1.3-0.9,1.9c-0.9,2-1.8,4-2.7,6c0.3,1.3,0.6,2.6,0.9,3.8
			L206.1,240.4z"/>
		<path class="st0" d="M425.6,210L425.6,210l0.4-0.8c0.3-0.7,0.6-1.3,0.7-1.7c2.4-5.8,2.2-8.9,1.3-9.9c-0.3-0.3-0.7-0.6-1.1-0.7
			c-0.6-0.2-1.2-0.3-1.8-0.2c-0.3,0-0.6,0-0.8,0H424c0.7,4.7,1.1,9.4,1.2,14.2C425.3,210.5,425.5,210.2,425.6,210z"/>
		<path class="st0" d="M226.6,275.8l0.1-1.5c-0.1-0.2-0.2-0.3-0.3-0.5c-1,1.1-2.1,2.1-3.2,3.1c-0.1,0.1-0.3,0.2-0.4,0.3
			c1.1,1.6,2.3,3.3,3.5,4.8l0.2-4.2L226.6,275.8z"/>
		<path class="st0" d="M237.3,287.4c-1.5-1.6-3-3.2-4.4-4.9c-0.5,0.1-1.1,0.1-1.6,0.1l-4.3,0.3c1.3,1.6,2.6,3.2,4,4.8L237.3,287.4z"
			/>
		<path class="st0" d="M377.1,302.9c-29.8,20.1-67.6,24.2-101,10.9c-3.8,0.2-7.5,0.3-11,0.4c40,20.2,88.1,15,122.8-13.2
			C384.3,301.6,380.7,302.3,377.1,302.9z"/>
		<path class="st0" d="M208.2,182.5L208.2,182.5c1.2-2.3,3-4.1,5.2-5.5c14.8-42.6,55.3-73.3,102.9-73.3c50.2,0,92.5,34.1,105.1,80.4
			l0.5-0.1l1.9-0.2c0.9-0.1,1.8-0.2,2.6-0.2c-12.8-48.7-57.3-84.8-110-84.8c-54.5,0-100.3,38.6-111.3,89.9l1-2L208.2,182.5z"/>
		<path class="st0" d="M247.5,91.9c1.2,0.6,2.5,0.9,3.8,0.8c1.6-0.1,3.3-0.3,4.9-0.7c1.2-0.3,2.4-0.5,3.7-0.6c0.9-0.1,1.7,0,2.6,0.3
			c0.8,0.3,1.5,1,1.8,1.8c0.5,1.1,0.6,2.3,0.1,3.4c-0.6,1.3-1.7,2.2-3,2.8c-1.2,0.7-2.6,0.9-3.9,0.5c-1.1-0.3-2.1-1.1-2.7-2.2
			l-4.6,2.2c0.7,1.4,1.8,2.6,3.2,3.4c1.4,0.8,3,1.1,4.6,1c1.8-0.1,3.6-0.6,5.2-1.4c1.7-0.8,3.2-2,4.3-3.5c1-1.3,1.6-2.8,1.7-4.4
			c0.2-1.5-0.1-3-0.7-4.3c-0.6-1.5-1.7-2.7-3.1-3.4c-1.2-0.6-2.5-0.9-3.9-0.9c-1.7,0.1-3.3,0.3-5,0.6c-1.2,0.2-2.4,0.4-3.6,0.5
			c-0.8,0.1-1.7,0-2.5-0.3c-0.8-0.3-1.4-0.9-1.7-1.6c-0.6-1-0.6-2.2-0.2-3.3c0.5-1.1,1.5-1.9,2.6-2.4c1.2-0.6,2.5-0.8,3.8-0.6
			c1.1,0.2,2,0.9,2.6,1.8l4.8-2.3c-1.1-2-3-3.5-5.3-3.9c-2.5-0.4-5,0-7.2,1.2c-1.6,0.8-3.1,1.9-4.3,3.2c-1,1.2-1.7,2.6-1.9,4.2
			c-0.2,1.6,0.1,3.1,0.8,4.5C245.1,89.9,246.1,91.1,247.5,91.9z"/>
		<polygon class="st0" points="275.9,71.1 282.5,95.6 287.1,94.4 280.5,69.9 288.1,67.8 287,64.1 267.3,69.4 268.3,73.1 		"/>
		<path class="st0" d="M299.3,87c1.1,1.6,2.6,2.8,4.3,3.5c3.8,1.4,7.9,1.2,11.5-0.6c1.7-0.9,3.1-2.3,4-3.9c1-1.9,1.4-4,1.2-6.1
			l-1-18.6l-4.8,0.3l1,18.7c0.1,2.2-0.4,3.9-1.5,5.1c-1.3,1.3-3,2-4.8,2c-1.8,0.2-3.5-0.3-4.9-1.4c-1.2-1.1-1.9-2.7-2-4.9l-1-18.7
			l-4.7,0.3l1,18.6C297.5,83.1,298.1,85.2,299.3,87z"/>
		<path class="st0" d="M343.4,92c2.4-0.7,4.6-2.1,6.2-4c1.7-2.1,2.8-4.6,3.2-7.3c0.5-2.7,0.3-5.4-0.6-8c-0.9-2.4-2.4-4.5-4.5-6
			c-2.3-1.7-5-2.8-7.8-3.2l-9.4-1.6l-5,28.9l9.4,1.6C337.8,92.8,340.7,92.7,343.4,92z M334.7,66.5l4.7,0.8c3.4,0.6,5.8,2,7.3,4.2
			c1.5,2.2,1.9,5,1.3,8.3c-0.6,3.3-1.9,5.7-4,7.3c-2.1,1.5-4.9,2-8.2,1.4l-4.7-0.8L334.7,66.5z"/>
		
			<rect x="346.2" y="81.2" transform="matrix(0.3251 -0.9457 0.9457 0.3251 164.4159 397.6783)" class="st0" width="29.3" height="4.8"/>
		<path class="st0" d="M369.3,100.9c2.9,4.5,7.9,7.3,13.2,7.3c2.6,0,5.1-0.7,7.3-2.1c2.3-1.4,4.2-3.4,5.5-5.8c1.4-2.4,2-5,2-7.7
			c0-2.6-0.8-5.1-2.2-7.3c-1.4-2.2-3.4-4.1-5.7-5.3c-2.3-1.3-4.9-2-7.5-2c-2.6,0-5.1,0.7-7.3,2c-2.3,1.4-4.2,3.4-5.5,5.8
			c-1.3,2.4-2,5-2,7.7C367.1,96.2,367.9,98.7,369.3,100.9z M373.4,88.2c0.9-1.7,2.2-3.2,3.9-4.4c1.5-1,3.2-1.5,4.9-1.6
			c3.7,0,7.1,1.9,9.1,5.1c0.9,1.5,1.4,3.2,1.3,5c-0.1,2-0.6,3.9-1.6,5.6c-0.9,1.8-2.3,3.3-3.9,4.4c-1.5,1-3.2,1.6-5,1.6
			c-1.8,0-3.6-0.4-5.2-1.3c-1.6-0.8-3-2.1-3.9-3.7c-0.9-1.5-1.4-3.3-1.3-5C371.8,91.9,372.4,89.9,373.4,88.2L373.4,88.2z"/>
		<path class="st0" d="M290.3,142.9c-27.4,10.3-46.3,35.6-48.3,64.8c0.3,0,0.6-0.1,0.9-0.1c0.5,0,1,0,1.4,0.1
			c1.9-28.1,19.9-52.5,46.2-62.5C290.4,144.5,290.3,143.7,290.3,142.9z"/>
		<path class="st0" d="M252.2,250.4c0.4-0.8,0.8-1.7,1.2-2.5c-0.5-0.8-0.9-1.7-1.4-2.5c-0.2,1.2-0.4,2.4-0.7,3.6
			C251.6,249.4,251.9,249.9,252.2,250.4z"/>
		<path class="st0" d="M295.9,284.2c2.7-0.2,5.3-0.4,7.9-0.6c-15.5-2.7-29.7-10.4-40.3-22l-0.7,1c-0.2,0.3-0.4,0.6-0.6,0.9
			C271.3,273.4,282.9,280.5,295.9,284.2L295.9,284.2z"/>
		<path class="st0" d="M384.6,189.5c0.9,0,1.8,0.2,2.6,0.4c-7.1-22-24.1-39.5-45.9-47.4c0,0.8-0.1,1.6-0.2,2.4
			C361.5,152.4,377.5,168.8,384.6,189.5z"/>
		<path class="st0" d="M380.5,250.4c-0.2-0.5-0.5-1-0.7-1.6c-0.1-0.4-0.3-0.8-0.4-1.2c-8.2,14.9-21.5,26.4-37.4,32.5
			c2.7-0.3,5.4-0.7,8.1-1.1C362.8,272.5,373.3,262.6,380.5,250.4z"/>
		<path class="st0" d="M227.1,189.6c1.6-2,4.1-3.2,6.7-3.2h0.2l-4.8-1.6C228.4,186.5,227.8,188.1,227.1,189.6z"/>
		<path class="st0" d="M395.1,197.1c1.8-1.9,3.8-3.6,5.8-5.1c3.9-2.9,8.3-5,13-6.3l0.1,0c-11.2-40.5-46.2-69.9-88-74
			c3.9,1.4,7.6,3.6,9.9,6.9c4.3,6.2,5.9,13.6,6.2,18.4c26.6,9.1,46.5,31.5,52.4,59l0,0C394.8,196.3,395,196.7,395.1,197.1z
			 M350.8,136.5l-1-0.4l4.4-9.9l1,0.4L350.8,136.5z M365.8,145.4l-0.9-0.7l6.4-8.8l0.9,0.6L365.8,145.4z M378.7,157.1l-0.7-0.8
			l8.1-7.3l0.7,0.8L378.7,157.1z M406.2,183.9l-10.4,3.4l-0.3-1l10.4-3.4L406.2,183.9z M388.9,171.3l-0.6-1l9.5-5.5l0.6,1
			L388.9,171.3z"/>
		<path class="st0" d="M355.1,306.3c-20.7,3-39.6,4.9-56.5,6.1C317.6,315.8,337.2,313.7,355.1,306.3z"/>
		<path class="st0" d="M215.4,222.5c0.1,0.7,0.1,1.4,0.2,2.2c0.4-0.9,0.6-1.6,0.8-2.2L215.4,222.5z"/>
		<path class="st0" d="M222.6,202.2c0-1,0-2,0.2-3c-1.1,2.2-2.2,4.6-3.5,7.2c-0.5,1.1-1.1,2.2-1.7,3.5l-0.1,0.3c0,0,0,0.1,0,0.1h0.9
			c2.3-0.1,3.4-0.1,5.7-0.2c0.6,0,1.1,0,1.6,0h0.6c-1.8-1.2-3-3.1-3.4-5.1c-0.1-0.5-0.2-1-0.2-1.5h-0.2L222.6,202.2L222.6,202.2z"/>
		<path class="st0" d="M237.2,187.1c1,0.4,1.9,1.1,2.6,1.9c7.5-24,25.7-43.2,49.4-51.7c0.3-4.8,1.8-12.4,6.2-18.8
			c2.2-3.1,5.7-5.2,9.5-6.7c-36.7,4.2-68.2,27.9-82.3,62c1.5-0.3,2.9-0.4,4.4-0.5l7.3-0.5l-2.8,6.7c-0.6,1.5-1.3,3-1.8,4.4l7.5,2.4
			l-0.2,0.7L237.2,187.1z M278.4,126.2l4.4,10l-1,0.4l-4.5-10L278.4,126.2z M261.3,135.9l6.4,8.8l-0.9,0.7l-6.4-8.8L261.3,135.9z
			 M246.6,149l8.1,7.3l-0.7,0.8l-8.1-7.3L246.6,149z M234.3,165.8l0.6-1l9.5,5.5l-0.6,1L234.3,165.8z"/>
		<path class="st0" d="M237.1,238.2c0.1-0.3,0.2-0.5,0.3-0.8c0.3-2.1,0.4-4.2,0.2-6.4v-0.3c-0.1-1.2-0.1-2.4-0.3-3.4l-1.7-2.3
			c-2.2,5.6-4.3,10.8-6.1,15.2l3.4-1.1l1.2-2.5l0.1,2l2.7-0.9l0.2,0.6v-0.1L237.1,238.2z"/>
		<path class="st0" d="M228.8,241.6c-1.3,3.2-2.5,5.9-3.4,8.2l-1.7,4.1c0.3,0.7,0.7,1.5,1,2.2c0.7-1.2,1.4-2.5,2-3.9l5.5-11.7
			L228.8,241.6z"/>
		<path class="st0" d="M231.4,267.2l0.2-0.6c-0.2,0.3-0.4,0.6-0.6,0.9c0.1,0.1,0.1,0.2,0.2,0.3C231.3,267.6,231.4,267.4,231.4,267.2
			z"/>
		<path class="st0" d="M282.5,285.1c-8.9-4.2-17-10-23.8-17.1c-5.3,6.2-11.1,10.3-17.6,12.6c2,2.2,4.1,4.3,6.2,6.3l14.8-0.7l4.7-6.4
			l0.9,0.6l-4.1,5.7C269.8,285.8,276.1,285.5,282.5,285.1z"/>
		<path class="st0" d="M236.4,209.5c-1.2,1-2.7,1.6-4.2,1.8c0.7,0.4,1.3,0.8,1.9,1.3c0.6-0.8,1.4-1.6,2.2-2.2
			C236.3,210,236.4,209.7,236.4,209.5z"/>
		<path class="st0" d="M234.4,242.7l1.1-1.6c-0.2-0.1-0.5-0.2-0.7-0.2h-0.2c0.2-0.1,0.4-0.2,0.5-0.3c0.7-0.4,1.2-1,1.6-1.7l-2.5,0.8
			L234.4,242.7z"/>
		<path class="st0" d="M383.7,272.5c6.1-1.4,11.8-2.9,17.3-4.2c2.5-3.8,4.7-7.7,6.7-11.8c-2.9,1.1-6,1.9-9.2,2.2l-1,0.1l0.7,0.4
			l-0.6,0.9l-2.2-1.3h-0.3c-2.9,0.1-5.8-0.6-8.4-1.9c-1-0.5-1.9-1.2-2.8-1.9c-5.3,8.4-12.1,15.7-20,21.7c4.9-0.9,9.6-1.8,14.1-2.9
			l4.3-1l-4.5-4l0.7-0.8L383.7,272.5z"/>
		<path class="st0" d="M235.1,251.6v0.4C235.1,251.9,235.1,251.7,235.1,251.6L235.1,251.6z"/>
		<path class="st0" d="M412,202.9c-0.8,0.8-1.6,1.7-2.4,2.6c-0.3,0.4-0.6,0.7-0.9,1.1c-3,3.9-5.6,8.1-7.6,12.5
			c-0.3,0.6-0.5,1.2-0.8,1.8l10,1.1l-0.1,1.1l-10.4-1.1c-2.1,4.8-3.5,9.8-4.3,14.9c-0.2,1.6-0.3,3.2-0.2,4.8
			c0.1,1.8,0.5,3.1,1.1,3.7c0.4,0.2,0.9,0.3,1.4,0.3c0.3,0,0.6,0,1-0.1c2-0.2,4.2-1.4,6.7-3.4l-9.9-3.2l0.3-1.1l10.4,3.4l-0.1,0.2
			c0.3-0.3,0.7-0.6,1-0.9c1.2-1.1,2.4-2.3,3.5-3.6c2.2-2.5,4.1-5.2,5.8-8.1c0.3-2.1,0.6-4.2,0.8-6.3c0.1-0.9,0.2-1.8,0.2-2.6
			c0.2-2.4,0.3-4.8,0.3-7.3c0-4.5-0.3-9-0.9-13.5C415.1,200.2,413.4,201.4,412,202.9z"/>
		<path class="st0" d="M302.5,154.8c-0.3-0.1-0.5-0.3-0.7-0.5c-0.2-0.2-0.5-0.2-0.8-0.1c0.3,0.4,0.7,0.7,1.2,0.8L302.5,154.8z"/>
		<path class="st0" d="M302.7,163.1c0,0.1,0.1,0.2,0.1,0.3c0.6,0.4,1.3,0.8,2,1C304.2,163.9,303.5,163.4,302.7,163.1z"/>
		<path class="st0" d="M319.8,169.6c-0.7-0.1-0.7,2.1-0.7,2.8l0.1,0l0.3,0.1c0.6,0.3,1.3,0.2,1.8-0.2c0-0.4,0-0.7,0-1.1
			C321.1,170.5,320.6,169.8,319.8,169.6z"/>
		<path class="st0" d="M304.9,168.2c0,0.1,0,0.3-0.1,0.5c-0.2,0.6-0.1,1.2,0.1,1.7c0.1,0.2,0.4,0.3,0.6,0.3c0.1-0.6,0.4-2.1,0.1-2.3
			C305.4,168.2,305.2,168.1,304.9,168.2z"/>
		<path class="st0" d="M312.9,146.1c-0.5,1-1,2-1.4,3c0,0.8-0.1,1.7-0.2,2.5c-0.3,1,0.1,0.9,0.1,0.9l0.1,0.1c0.8-0.8,1.3-2,1.3-3.1
			c0.2,1.2-0.2,2.5-1,3.4c0.5,0.6,1,1.4,1.3,2.1l0.2-0.5c0.2-1.3,0.3-4.1,0.4-4.4c0.1-0.3-0.2-1.4,0-1.5c0.3-0.8,0.4-1.5,0.4-2.3
			c0-0.4,0-0.9,0-1.3C313.5,145.3,313.2,145.7,312.9,146.1z"/>
		<path class="st0" d="M317.9,148.7c0.2,0.1-0.1,1.2,0,1.5c0.1,0.3,0.2,3,0.4,4.4l0.2,0.5c0.3-0.8,0.7-1.5,1.2-2.1
			c-0.9-0.9-1.2-2.2-1-3.4c0,1.2,0.4,2.3,1.3,3.2l0.1-0.1c0,0,0.4,0,0.1-0.9c-0.1-0.8-0.2-1.7-0.2-2.5c-0.4-1-0.8-2-1.4-3
			c-0.3-0.4-0.6-0.7-1-1c0,0.4,0,0.9,0,1.3C317.6,147.1,317.7,147.9,317.9,148.7z"/>
		<path class="st0" d="M303.2,154.3l-0.7,0.1l0.2,0.3L303.2,154.3z"/>
		<path class="st0" d="M321.5,170.1c-0.2,0.3,0.1,1.3,0.3,2l0.1,0c0.2,0.1,0.4,0.1,0.6,0.1c0.1,0,0.2-0.1,0.2-0.2l0.1-0.2
			c-0.1-0.7-0.3-2.2-0.4-2.4C322.3,169.2,321.8,169.6,321.5,170.1z"/>
		<path class="st0" d="M312.1,172.5l0.2-0.1h0.1c0-0.7-0.1-2.9-0.7-2.8c-0.8,0.2-1.4,0.8-1.4,1.7c0,0.4,0.1,0.7,0,1.1
			C310.8,172.7,311.5,172.8,312.1,172.5z"/>
		<path class="st0" d="M313.4,169.4c-0.4,0.3-0.8,2.4-0.9,3.1l0.1,0.1c0.7,0.4,1.5,0.6,2.2,0.4c0.9-0.4,0.6-1.7,0.6-1.7
			c-0.1-0.4-0.3-0.7-0.5-1C314.5,169.7,313.8,169.1,313.4,169.4z"/>
		<path class="st0" d="M318.1,169.4c-0.5-0.3-1.1,0.3-1.6,0.9c-0.2,0.3-0.4,0.6-0.5,1c0,0.2,0,0.3,0,0.5c0,0.5,0.2,1,0.7,1.2
			c0.8,0.2,1.6,0,2.2-0.4l0.1-0.1C318.9,171.8,318.5,169.7,318.1,169.4z"/>
		<polygon class="st0" points="307.5,171.8 307.6,171.8 307.5,171.8 		"/>
		<path class="st0" d="M309.1,169.4c-0.1,0.2-0.3,1.7-0.4,2.4l0.1,0.2c0,0.1,0.1,0.2,0.2,0.2c0.2,0,0.4,0,0.6-0.1l0.1-0.1
			c0.2-0.7,0.5-1.7,0.3-2C309.7,169.6,309.2,169.1,309.1,169.4z"/>
		<path class="st0" d="M306.2,171.1v0.1c0,0.2,0.3,0.2,0.7,0.1h0.2c0.2-0.7,0.6-2.2,0.2-2.4C306.7,168.6,306.5,169.8,306.2,171.1z"
			/>
		<path class="st0" d="M308.3,171.7c0.1-0.7,0.4-2.4,0.1-2.5c-0.5-0.1-0.7,1.2-0.8,2.1h0.1l-0.1,0.2c0,0.1,0,0.2,0,0.3
			C307.8,171.8,308,171.7,308.3,171.7L308.3,171.7z"/>
		<path class="st0" d="M313.8,150l-0.3,3.5c0.4-1.3,1.2-4,1.2-4l0.2,1l0.1-0.8l0.5-0.3v-0.1l0,0l0,0v-0.2l0,0l0-3.3l0.2,2.4l0.2-2.4
			l0,3.3h0l0,0.2v0.1h-0.1l0,0l0.5,0.3l0.1,0.7l0.2-1c0,0,0.8,2.7,1.2,4l-0.3-3.5l0.1-1.3c0,0-0.7-2.5-0.4-3.9
			c-0.5-0.4-1.1-0.7-1.7-0.7c-0.5,0.1-1.1,0.4-1.5,0.7c0.4,1.4-0.4,3.9-0.4,3.9L313.8,150z"/>
		<path class="st0" d="M324.2,168.9c-0.4,0.2,0,1.7,0.2,2.4h0.2c0.4,0.1,0.7,0,0.7-0.2v-0.1C325,169.8,324.8,168.6,324.2,168.9z"/>
		<polygon class="st0" points="323.9,171.8 323.8,171.8 324,171.8 		"/>
		<path class="st0" d="M326.5,168.2c-0.3-0.1-0.5,0-0.7,0.2c-0.3,0.3-0.1,1.8,0.1,2.4c0.2,0,0.4-0.2,0.6-0.3
			c0.2-0.6,0.3-1.2,0.1-1.7C326.6,168.5,326.6,168.3,326.5,168.2z"/>
		<path class="st0" d="M323.1,169.2c-0.2,0.1,0,1.8,0.1,2.5h0.1c0.2,0,0.4,0.1,0.6,0.1c0-0.1,0-0.2,0-0.3l-0.1-0.2h0.1
			C323.8,170.4,323.6,169,323.1,169.2z"/>
		<path class="st0" d="M313.7,113.2c-3.9,0.7-11.9,2.7-15.2,7.4c-0.2,0.3-0.4,0.6-0.6,0.8s-0.4,0.6-0.5,0.9l-0.3,0.6
			c-0.1,0.2-0.3,0.5-0.4,0.7c-0.1,0.3-0.3,0.5-0.4,0.7c-0.1,0.1-0.1,0.2-0.2,0.4c-0.1,0.3-0.2,0.5-0.4,0.8c-0.6,1.3-1,2.7-1.4,4.1
			c-0.1,0.3-0.2,0.7-0.3,1c-0.1,0.3-0.2,0.6-0.2,0.8c0,0.1,0,0.1,0,0.2c-0.1,0.3-0.1,0.6-0.2,0.9c-0.3,1.2-0.4,2.4-0.6,3.5
			c-0.1,0.9-0.2,1.8-0.2,2.6l0,0v0.2c0,0.1,0,0.1,0,0.2c0,0.1,0,0.2,0,0.3c0,0.6,0.1,1.2,0.2,1.8c0.1,0.9,0.4,1.8,0.6,2.7
			c0.6,0.7,1.1-1.1,1-2c-0.1-0.4-0.1-0.9,0-1.3l0.3-0.1c0,0.5,0.2,0.9,0.4,1.4c0.3-0.1,0.7-1,0.9-1.7l0.2-0.1
			c-0.1,0.7-0.2,1.4-0.5,2.1c-0.6,1.2-0.8,2.6-0.6,3.9c0,0.3,0.1,0.5,0.2,0.7l0.7-1v-0.1c0,0,0,0,0,0c-0.2,1.5-0.6,2.9-1.1,4.3
			c0,0.4-0.1,0.9-0.2,1.3c-0.2,0.8-0.5,1.5-1,2.1c-0.2,0.2-0.3,0.4-0.5,0.6c-0.3,0.3-0.4,0.6-0.5,0.9c-0.1,1,0.2,2,0.9,2.7
			c0.4,0.5,0.8,0.9,1.2,1.3c0.8,0.8,1.6,1.5,2.5,2.2c0.1-0.2,0.3-0.4,0.5-0.6c-1.3-0.9-2.5-2-3.5-3.3c-0.2-0.3-0.4-0.5-0.6-0.8
			l-0.1-0.1c-0.3-0.7,0.2-1.9,0.7-2.6c0.2-0.3,0.3-0.5,0.5-0.7c0,0.1-0.1,0.4-0.3,0.9s-0.3,0.8-0.4,1.2c-0.4,1.1,0.7,2.1,1,2.4
			c0.3,0.3-0.2-1-0.3-1.1l2.6,2.8l-1.3-0.8c-0.7-0.3,1,1.3,1.4,1.5c0.1,0.1,0.3,0.1,0.5,0.1c0.2,0,0.4,0,0.6-0.1
			c0.2-0.3,0.4-0.6,0.5-0.9c0.2-0.3,0.3-0.7,0.5-1l0.3-0.6c0.3-0.6,0.5-1.1,0.5-1.2c0.3-0.3,0.7-0.5,1-0.7c-0.8-0.2-1.4-0.7-1.9-1.3
			c-0.2-0.3-0.2,0.4-0.2,0.4c-0.2-0.4-0.4-0.8-0.5-1.2c-0.2-0.5-0.4-1.1-0.6-1.8c0-0.1,0-0.1-0.1-0.2c-0.1-0.3-0.2-0.6-0.2-0.9
			c-0.1-0.6-0.3-1.2-0.4-1.8c-0.2-1.1-0.2-2.2,0.1-3.2l0,0c0.2-0.6,0.4-1.1,0.7-1.6l0,0c0,0,0.6-1.3,6.3-0.7c0,0-4,0.1-5.2,1
			c0.3,0,0.5,0,0.8,0c0.8,0,3.2-0.3,3.2-0.3l-0.6,0.4l-0.5,0.4c0,0,5.2,0.1,6.7,0.5l0.2,0.1c0.5,0.3,0.9,0.7,1.1,1.2
			c0.3,0.5,0.5,1.1,0.7,1.7c0,0.1,0.1,0.2,0.1,0.2l0,0.1l0,0.1c0-0.1,0-0.1,0.1-0.2l0,0c0-0.1,0-0.2,0.1-0.3l0,0
			c-0.2-1-0.5-2-0.9-2.8c-0.2-0.4-0.4-0.7-0.5-1l0,0c-0.1-0.1-0.1-0.2-0.1-0.3c0-0.1-0.1-0.3-0.2-0.3c0.1,0.1,0.1,0.1,0.2,0.2l0,0
			c0.8,1,1.5,2.2,1.9,3.5c0.1-0.2,0.2-0.4,0.2-0.6c0.4-0.7,0.9-1.4,1.4-2c0.1-0.1-0.4-1-0.4-1.1l0.7,0.9l0,0l1.5-0.7l0.4-0.2l0,0
			l0.4,0.2l1.5,0.7l0,0l0.7-0.9c-0.1,0.1-0.5,1-0.4,1.1c0.6,0.6,1,1.3,1.4,2c0.1,0.2,0.2,0.4,0.2,0.6c0.2-0.5,0.3-1,0.5-1.4
			c0.3-0.8,0.8-1.5,1.3-2.1l0,0c0.1-0.1,0.1-0.1,0.2-0.2c0,0-0.1,0.1-0.2,0.3c-0.1,0.2-0.1,0.1-0.1,0.2l0,0
			c-0.7,1.2-1.2,2.5-1.5,3.8c0,0,0,0.1,0,0.1c0,0.1,0,0.1,0.1,0.2v0.1l0.1,0.2l0-0.1l0.1-0.2c0-0.1,0-0.1,0.1-0.2
			c0.2-0.5,0.4-1.1,0.7-1.6c0.2-0.5,0.6-1,1.2-1.2l0.2-0.1c1.5-0.4,6.7-0.5,6.7-0.5l-1-0.7l-0.2-0.1c0,0,2.4,0.3,3.2,0.3
			c0.3,0,0.5,0,0.8,0c-1.2-0.9-5.2-1-5.2-1c5.6-0.6,6.3,0.7,6.3,0.7l0,0c0.3,0.4,0.5,0.8,0.7,1.3c0.4,1.1,0.4,2.3,0.2,3.4
			c-0.1,0.5-0.2,1-0.3,1.5c-0.1,0.5-0.2,0.8-0.3,1.2l0,0c-0.2,0.7-0.4,1.4-0.7,2c-0.2,0.4-0.3,0.9-0.5,1.3c0,0,0-0.7-0.2-0.4
			c-0.4,0.7-1.1,1.2-1.9,1.3c0.4,0.2,0.7,0.5,1,0.8c0,0.1,0.2,0.5,0.5,1.2l0.3,0.6c0.1,0.3,0.2,0.5,0.4,0.8c0.2,0.4,0.4,0.7,0.6,1.1
			c0.3,0.1,0.7,0.1,1.1,0l0.1-0.1c0.5-0.4,2-1.7,1.3-1.4l-1,0.6l-0.3,0.2l0.4-0.4l0,0l2.2-2.4c-0.1,0.1-0.6,1.4-0.3,1.1
			c0.3-0.3,1.4-1.3,1-2.4c-0.2-0.4-0.3-0.8-0.4-1.2c-0.1-0.4-0.3-0.8-0.3-0.9c0.2,0.2,0.4,0.5,0.5,0.7c0.5,0.7,1,1.9,0.7,2.6
			c-0.1,0.1-0.1,0.3-0.2,0.4l-0.1,0.2c-1.1,1.4-2.3,2.6-3.7,3.6l0,0l-0.1,0.1l0.1,0.1c0.2,0.2,0.3,0.3,0.5,0.5
			c0.9-0.7,1.7-1.4,2.5-2.2c0.4-0.4,0.8-0.8,1.2-1.3c0.7-0.7,1-1.7,0.9-2.6c-0.1-0.4-0.2-0.7-0.5-1c-0.2-0.2-0.4-0.4-0.5-0.6
			c-0.5-0.7-0.9-1.6-1.1-2.5c-0.1-0.3-0.1-0.6-0.1-0.9c-0.6-1.4-1-2.8-1.2-4.3l0.7,1c0.1-0.3,0.2-0.7,0.2-1.1
			c0.1-1.2-0.1-2.5-0.7-3.6c-0.3-0.8-0.5-1.6-0.5-2.4h0.1c0.2,0.7,0.6,1.9,1,2.1c0.2-0.5,0.4-1.1,0.4-1.7l0.2,0.1
			c0.1,0.5,0.2,1.1,0.1,1.6c-0.2,0.9,0.3,2.7,1,2c0.3-1,0.5-2.1,0.7-3.1c0.1-0.5,0.1-1,0.1-1.4c0-0.3,0-0.7,0-1.1
			c0-0.7-0.1-1.6-0.2-2.6c-0.1-0.8-0.2-1.7-0.4-2.7c0-0.3-0.1-0.5-0.2-0.7c-0.1-0.2-0.1-0.5-0.2-0.8c0-0.1,0-0.1-0.1-0.2
			c-0.1-0.1,0,0,0-0.1c-0.1-0.2-0.1-0.4-0.2-0.6c0,0,0,0,0-0.1c-0.1-0.3-0.2-0.6-0.3-0.9c0-0.1-0.1-0.3-0.1-0.4
			c0-0.1-0.1-0.4-0.2-0.7c-0.1-0.2-0.2-0.5-0.2-0.7l0-0.1c-0.1-0.3-0.2-0.5-0.3-0.7c-0.1-0.2-0.1-0.4-0.2-0.6c0-0.1,0-0.1-0.1-0.2
			c-0.1-0.2-0.2-0.5-0.3-0.7s-0.3-0.7-0.4-1v-0.1c-0.1-0.3-0.3-0.6-0.5-0.9l0,0c-0.2-0.3-0.3-0.6-0.5-0.9c-0.2-0.3-0.3-0.4-0.4-0.7
			c-0.1-0.2-0.2-0.3-0.2-0.4c-0.2-0.3-0.4-0.6-0.6-0.8c-3.3-4.7-11.3-6.7-15.1-7.4C316.5,113,315,113,313.7,113.2z M317.9,137.5
			c-0.5,0.4-0.9,0.9-1.1,1.5c0.2-0.5,0.4-1.1,0.7-1.6L317.9,137.5C318,137.5,318,137.5,317.9,137.5C318,137.5,318,137.5,317.9,137.5
			z M317.3,137.5c-0.2,0.2-0.4,0.4-0.6,0.6c0.1-0.1,0.2-0.3,0.4-0.6H317.3z M314.8,138.1c-0.2-0.2-0.4-0.4-0.6-0.6h0.3
			C314.6,137.7,314.7,137.9,314.8,138.1z M314.6,139.1c-0.2-0.6-0.6-1.1-1.1-1.5c0.1,0,0.3,0,0.4,0h0v0.1
			C314.2,138.1,314.4,138.6,314.6,139.1z M296.8,154.3L296.8,154.3c0,0-0.1,0-0.1,0c-0.2,0-0.3-0.1-0.3-0.3c0,0,0,0,0,0
			c0-0.1,0.1-0.2,0.2-0.2c0,0,0.1,0,0.1,0c0.2,0,0.3,0.1,0.3,0.3C296.9,154.2,296.9,154.3,296.8,154.3L296.8,154.3z M297.5,155.4
			c0.3,0,0.5,0.2,0.5,0.4c0,0,0,0,0,0c0,0.3-0.2,0.5-0.5,0.5c-0.3,0-0.5-0.2-0.5-0.4c0,0,0,0,0,0c0-0.2,0.1-0.4,0.3-0.4
			C297.4,155.5,297.5,155.4,297.5,155.4L297.5,155.4z M297.1,143.1c0.8-1.3,2.1-2.3,3.6-2.6c-0.4,0.1-0.7,0.4-1,0.7
			c0.9-0.3,1.8-0.4,2.7-0.2C300.4,141.2,298.6,142,297.1,143.1L297.1,143.1z M312.4,141.5c-0.8-0.6-1.4-1.1-1.5-1.1
			c-0.3-0.2-0.6-0.3-0.9-0.5l0.3,0.5l-1.9-0.7h1.3l-1.9-1c-0.4-0.2-0.8-0.3-1.2-0.4c0.5-0.1,0.9-0.1,1.4-0.2
			c1.3,0.5,2.5,1.2,3.7,1.9l1.3-0.7l-0.7,0.9l0.7,0.9l0,0l0,0l-0.7-0.2l0.5,0.4l0.1,0.1l0.2,0.2L312.4,141.5z M333.9,156.3
			c-0.1,0-0.2,0-0.3-0.1c-0.2-0.2-0.2-0.4-0.1-0.6c0.1-0.1,0.2-0.2,0.4-0.2c0,0,0.1,0,0.1,0c0.2,0.1,0.3,0.2,0.3,0.4
			C334.4,156.1,334.2,156.3,333.9,156.3C333.9,156.3,333.9,156.3,333.9,156.3z M329.1,140.9c0.9-0.2,1.9-0.1,2.7,0.2
			c-0.3-0.3-0.6-0.5-1-0.7c1.5,0.3,2.8,1.3,3.6,2.6C332.8,141.9,331,141.2,329.1,140.9z M335.1,154.1c0,0.2-0.1,0.3-0.3,0.3
			c0,0,0,0,0,0c0,0-0.1,0-0.1,0c-0.1,0-0.2-0.1-0.2-0.2c0-0.2,0.1-0.3,0.3-0.3c0,0,0,0,0,0c0,0,0.1,0,0.1,0
			C335.1,153.9,335.1,154,335.1,154.1z M323.6,138.5l-1.9,1h1.3l-1.9,0.7l0.3-0.5c-0.3,0.2-0.6,0.4-0.9,0.5c-0.1,0-0.7,0.5-1.5,1.1
			h-0.7l0.2-0.2l0.1-0.1l0.5-0.4l-0.7,0.2l0,0l0,0l0.7-0.9l-0.7-0.9l1.3,0.7c1.3-0.8,2.6-1.5,4-2c0.5,0,1,0.1,1.5,0.2
			C324.6,138.1,324.1,138.3,323.6,138.5z"/>
		<path class="st0" d="M328.7,163.5c0-0.1,0.1-0.2,0.1-0.3c-0.8,0.2-1.6,0.7-2.1,1.4C327.4,164.2,328.1,163.9,328.7,163.5z"/>
		<path class="st0" d="M329.9,162c0.5-0.1,1.1,0,1.6,0.2c0.4,0.2,1,0,1.7-0.5c0.2-0.1,0.3-0.2,0.5-0.3l-0.3-0.3l-0.2-0.3
			c-0.7,0.5-1.5,0.7-2.3,0.6c0,0,1.7-0.6,1.7-1.3c-0.3-0.4-0.6-0.8-0.8-1.2c-0.1-0.2-0.2-0.5-0.3-0.7l-0.1-0.1
			c0-0.1-0.1-0.2-0.1-0.3c-0.3-0.8-0.8-1.4-1.5-1.9c-0.1-0.1-0.2-0.1-0.2-0.2l-0.1,0c-0.3,0.1-0.6,0.1-0.9,0.2
			c-0.6,0.1-1.2,0.1-1.9,0.1c-0.5,0-1,0-1.5-0.1c0,0,0.7,0,1.6-0.1c0.5-0.1,1.1-0.2,1.6-0.3c0.2,0,0.4-0.1,0.6-0.2l-0.3-0.3
			l-0.2,0.1l0.1-0.2l-0.2-0.2l-0.3-0.3l-0.6-0.1h-0.1c-0.4,0-1.2,0-1.8,0h-0.9l0.7,0.3l0.9,0.4l-1-0.2l0,0l-1.9-0.4l-0.3-0.1
			l-0.6-0.1l0.6-0.3l-0.1-0.1l-0.6-0.4l-0.7-0.5l-0.5-0.3c-0.3,0-0.7-0.1-0.8,0.1l-0.1,0.1c0.2,0.2,0.4,0.3,0.6,0.5
			c0.4,0.3,0.8,0.6,1.2,0.8c-0.6-0.2-1.1-0.4-1.6-0.7c-0.1-0.1-0.3-0.2-0.4-0.3c-0.1,0.1-0.3,0.3-0.4,0.5l0,0
			c-0.4,0.5-0.7,1-0.9,1.6v0.2c0.2,0.5,0.3,0.9,0.4,1.1c0.1,0.4,1.2,2.6,0.6,3.9l-0.3,0.6v0.1h0l0.5-0.1c0,0-0.2,0.1-0.4,0.3
			c-0.6,0.4-1.4,0.7-2.1,0.7c-0.4,0-0.7-0.2-0.9-0.5c-0.5-0.7-0.6-1.6-0.3-2.4l0.1,0.1l0.9,0.6l-0.3-1.9l-0.4,0.6l-0.3-1.6l-0.3-2
			l-0.1-0.6v-0.2v0.2l-0.3,1.7l-0.1,0.8l-0.3,1.8l-0.4-0.6l-0.3,1.9l0.9-0.6l0.1-0.1c0.3,0.8,0.1,1.7-0.3,2.4
			c-0.2,0.3-0.5,0.5-0.9,0.5l0,0c-0.7-0.1-1.4-0.3-2-0.7c-0.2-0.1-0.4-0.3-0.5-0.3l0,0l0,0l0.5,0.1l-0.3-0.7c-0.6-1.3,0.5-3.5,0.6-4
			c0.1-0.2,0.2-0.7,0.4-1.1v-0.2c-0.2-0.6-0.5-1.2-0.9-1.6c-0.1-0.2-0.3-0.3-0.4-0.5c-0.1,0.1-0.3,0.2-0.4,0.3
			c-0.5,0.3-1,0.6-1.6,0.7c0.4-0.2,0.8-0.5,1.2-0.8c0.2-0.2,0.4-0.3,0.6-0.5l-0.1-0.1c-0.1-0.1-0.5-0.1-0.8-0.1l-0.6,0.3l-0.7,0.4
			l-0.6,0.4l-0.2,0.1l0.6,0.3h-0.1l-0.7,0.1l-1.9,0.4l-1,0.2l0.9-0.4l0.7-0.3h-0.9c-0.6,0-1.4,0-1.8,0H304l-0.7,0.1
			c-0.1,0.1-0.3,0.4-0.5,0.6l0.1,0.2l-0.2-0.1l-0.1,0.1l0,0c0,0.1-0.1,0.1-0.1,0.1l0.3,0.1h0.1c0.6,0.2,1.2,0.3,1.9,0.4
			c0.9,0.1,1.6,0.1,1.6,0.1c-0.5,0-1,0.1-1.5,0.1c-0.5,0-1.1,0-1.6-0.1H303c-0.3,0-0.6-0.1-1-0.2l-0.1,0c-0.8,0.5-1.3,1.2-1.7,2.1
			c-0.1,0.1-0.1,0.2-0.1,0.3c0,0,0,0.1-0.1,0.1c-0.1,0.3-0.3,0.6-0.4,0.9c-0.2,0.4-0.5,0.7-0.7,1c0,0.7,1.7,1.3,1.7,1.3
			c-0.8,0.1-1.6-0.1-2.2-0.5l-0.1-0.1l-0.5,0.6c0.3,0.2,0.6,0.4,1,0.6c0.4,0.3,0.9,0.3,1.3,0.2c0.5-0.2,1-0.3,1.6-0.2
			c0.1-0.5-0.1-1-0.4-1.3c0.1,0,0.6,0.3,1.3,0.6c1,0.4,2,0.9,3,1.5h-0.6c0.3,0.5,0.6,1.1,0.8,1.7c0,0.1,0,0.1,0.1,0.2l0,0
			c0.1,0.2,0.1,0.5,0.2,0.7c0,0,0,0.1,0,0.1l-0.1-0.1l-0.4-0.3l-0.2-0.2l-0.1,0.3c-0.1,0.2-0.2,0.4-0.2,0.6c0,0,0,0,0,0.1
			c-0.1,0.3-0.1,0.7-0.1,1c0.1,0.2,0.2,0.3,0.3,0.4c0.1,0.1,0.3,0.1,0.4,0c0.4-0.2,0.4-0.7,0.4-1v-0.1v0.1c0,0.1,0,0.1,0.1,0.2
			c0.1,0.3,0.2,0.6,0.4,0.9c0.1,0.1,0.1,0.2,0.2,0.2c0,0,0.1,0.1,0.2,0.1c0.1,0,0.1,0,0.2,0c0.1-0.1,0.2-0.2,0.2-0.3
			c0.1-0.4,0.2-0.9,0.2-1.3c0.1,0.6,0.2,1.1,0.5,1.7c0.1,0.1,0.1,0.2,0.2,0.3l0,0l0,0c0.1,0.1,0.1,0.1,0.2,0.2h0.3V167v-1
			c0,0,0,0.1,0,0.1c0,0.1,0.1,0.4,0.1,0.7c0.1,0.5,0.3,1,0.6,1.1h0.1c0.1,0,0.2,0.1,0.3,0.2c0.4,0.2,0.7,0.5,1,0.6l0,0l0.2,0.1l0,0
			l-0.2-1.4v-0.3l0-0.4l-0.1-0.8v-0.2l0-0.1l-0.5-1.1l0.6,0.2l1.3-2l-0.9,2.4l0.1,0.6l0,0l0.1,0.5l0.1,0.2l-0.3,0.1
			c0,0,0.2,2,1.3,2.2c0.1,0,0.1,0,0.2,0c1.1-0.1,0.3-1,0.1-1.2l-0.1-0.1l0-0.6v-0.4l0.1-1l0,0l0.1-1.3l0.2,1.3l0.2,1.5l0.6,1
			l0.3,0.5l1.4,0.5c0,0,0.1-0.5,0.2-1c0.1-0.3,0.1-0.7,0-1c0-0.2-0.1-0.4-0.2-0.7s-0.2-0.5-0.3-0.7c-0.1-0.2-0.2-0.5-0.2-0.6
			l0.4,0.7l0.3,0.5l0.4,0.6l0.3-0.6l0.3-0.5l0.4-0.6c0,0.1-0.1,0.3-0.2,0.6s-0.2,0.5-0.3,0.7s-0.2,0.5-0.2,0.7c0,0.3,0,0.7,0.1,1
			c0.1,0.5,0.2,1,0.2,1l1.4-0.5l0.3-0.5l0.5-1l0.2-1.4v-0.1l0.1-0.8l0.1-0.5v0.3l0.1,1.1v0.1l0.1,1.1v0.2l0,0.6l-0.1,0.1
			c-0.3,0.3-1,1.1,0.1,1.2c0.1,0,0.1,0,0.2,0c1.1-0.2,1.3-2.2,1.3-2.2l-0.3-0.1l0.1-0.2l0.1-0.5l0,0l0.1-0.6l-0.9-2.4l1.3,2l0.6-0.2
			l-0.5,1.1v0.1v0.2l0,0l-0.1,0.8v0.3v0.3l-0.2,1.5c0,0,0.6-0.4,1.1-0.7c0.1-0.1,0.2-0.1,0.3-0.2l0.1-0.1c0.3-0.1,0.5-0.6,0.6-1.1
			c0.1-0.5,0.2-0.9,0.2-0.9v1v1.2h0.3c0.1-0.1,0.2-0.1,0.2-0.2l0,0c0,0,0,0,0-0.1c0.1-0.1,0.1-0.2,0.1-0.2c0.2-0.5,0.4-1.1,0.5-1.7
			c0,0.4,0.1,0.9,0.3,1.3c0,0.1,0.1,0.2,0.2,0.2l0,0c0.1,0.1,0.1,0.1,0.2,0.1c0.1,0,0.1,0,0.2-0.1c0.1-0.1,0.2-0.1,0.2-0.2
			c0.2-0.3,0.3-0.5,0.4-0.8c0-0.1,0.1-0.2,0.1-0.3v-0.1v0.1c0,0.2,0.1,0.7,0.4,1c0.1,0.1,0.3,0.1,0.5,0c0.1-0.1,0.2-0.2,0.3-0.4
			c0-0.3,0-0.6-0.1-0.8c0-0.1,0-0.1,0-0.2c0,0,0,0,0-0.1l0,0l0,0l0,0c-0.1-0.2-0.1-0.4-0.2-0.6l-0.1-0.3l-0.2,0.2l-0.4,0.3l-0.1,0.1
			c0,0,0-0.1,0-0.1c0-0.3,0.1-0.5,0.2-0.7l0.1-0.2c0.2-0.6,0.5-1.1,0.8-1.7h-0.6c1-0.6,2-1.1,3-1.5l1.3-0.6
			C330.1,161.1,329.9,161.5,329.9,162z M305.9,160.6L305.9,160.6l-0.3-0.4l0.4,0.2l0.3-0.4l0.4,1.3l0.3,0.9L305.9,160.6z
			 M310.4,157.4l-0.3,0.4c-0.2,0.3-0.4,0.7-0.5,1c0,0.9,0.1,1.7,0.3,2.5c0,0.5,0,0.9-0.1,1.4l-0.2,1.6l-0.2-1.5l0.2-1.2
			c0,0-0.3-2.4-0.6-2.8c-0.3-0.4-1.4-0.6-1.5-0.1c0,0.7,0.1,1.3,0.2,2l-1.2-2l-2,0.7l-1.4-0.6h-0.4l0.2-0.2l0,0l0.2,0l1.4,0.2
			c0,0,2.6-1.6,4.3-1.7l0.7-0.4l0.4-0.2l0.4-0.2l0.2,0.4C310.8,156.9,310.6,157.1,310.4,157.4z M325.6,160.6L325.6,160.6l-1.1,1.6
			l0.3-0.9l0.4-1.3l0.3,0.4l0.4-0.2L325.6,160.6z M328.1,159L328.1,159l-1.4,0.6l-2-0.7l-1.1,2c0.1-0.7,0.2-1.3,0.2-2
			c-0.1-0.5-1.2-0.3-1.5,0.1c-0.3,0.9-0.5,1.8-0.5,2.8l0.3,1.2l-0.2,1.5l-0.2-1.6c-0.1-0.5-0.2-0.9-0.1-1.4c0.2-0.8,0.3-1.7,0.3-2.5
			c-0.1-0.3-0.2-0.7-0.4-1c-0.1-0.1-0.2-0.3-0.3-0.4c-0.2-0.3-0.4-0.6-0.4-0.6l0.2-0.4l0.5,0.2l0.4,0.2l0.7,0.4
			c1.7,0.1,4.3,1.7,4.3,1.7l1.4-0.2h0.2l0,0l0.1,0.1l0.2,0.2L328.1,159z"/>
		<path class="st0" d="M329,154.4l-0.7-0.1l0.5,0.4L329,154.4z"/>
		<path class="st0" d="M309.3,152.7c0.2,0,0.6-0.1,1-0.1c0.8-0.7,1.1-2.4,1-3.1c0-0.1,0-0.2,0-0.4
			C310.7,150,309.1,152.7,309.3,152.7z"/>
		<path class="st0" d="M321.2,152.6c0.3,0.1,0.7,0.1,1,0.1c0.2,0-1.4-2.7-2-3.6c0,0.1,0,0.2,0,0.4
			C320.1,150.2,320.4,151.9,321.2,152.6z"/>
		<path class="st0" d="M330.5,154.3c-0.3-0.1-0.6-0.1-0.8,0.1c-0.2,0.2-0.5,0.3-0.7,0.5l0.4,0.3C329.8,155,330.2,154.7,330.5,154.3z
			"/>
		<path class="st0" d="M108.1,290.6c6.4,4.5,13.7,5.4,21.8,2.5c26.1-9.4,39.5-38,46.5-63c1.5-5.1,2.6-10.4,3.2-15.7
			c3.1-5,5-10.6,5.8-16.4c0.7-5.6,0.3-10.5-1.3-14.6c-2.6-6.6-8.7-9.5-17.7-8.4c-8.8,1.1-17.4,5.4-26.2,12.5
			c-12.3,9.4-24.5,23.8-31.8,37.1c-6.6,12-11.2,29.5-11,43.3C97.7,277.8,101.2,285.7,108.1,290.6z M122.7,224.6
			c8.3-14.5,19.4-28.6,34-37.8c8.1-4.4,14.5-5,19.4-1.8c5.2,3.4,6.6,10.2,3.9,20.1c0,0,0-0.1,0-0.1c0,0-0.1,0.2-0.1,0.6
			c-0.4-8.5-1.7-14.4-4-17.6c-3-4.2-7.8-4.2-14.2,0.1c-1.5,1-2.7,2.8-3.6,5.6c0.7-1.4,2.2-2.2,4.3-2.2c2.4-0.1,3.9,1.3,4.5,4.1
			c1.7,9.3,1.7,18.9-0.1,28.2c-4.3,2.2-8.2,2.7-11.7,1.3c-3.5-1.4-5-4.1-4.4-8.1c1.9,1.6,3.8,1.9,5.8,0.9c1.7-0.8,3.2-2.5,4.3-4.8
			c1.1-2,1.5-4.3,1.3-6.6c-0.3-2.3-1.3-3.8-3.2-4.5c-3.5-1.3-6.8-0.4-9.8,2.7c-2.9,3-4.8,6.9-5.5,11c-0.9,4.7-0.3,8.4,1.7,11.2
			c2.4,3.3,6.4,4.4,11.8,3.3c3.1-0.6,6-1.6,8.8-3.1c-1.6,7.5-4,14.8-6.9,21.8c-5.8,14.9-15.4,34.4-31.5,39.3
			c-5.2,1.6-9.7,0-12.6-4.1c-2.6-3.7-3.9-9.3-4-16.4C110.8,253.9,115.9,236.5,122.7,224.6z"/>
		<path class="st0" d="M175.1,248.2L175.1,248.2c0,0,0-0.1,0.1-0.1L175.1,248.2z"/>
		<path class="st0" d="M182.1,244.1c-1.6,0.9-2.9,1.2-3.9,0.9c1.5,1.4,3.5,2.3,5.5,2.2c-3.7,8.7-5.7,13.9-6.2,15.5l-0.1,0.1
			c-4.8,14.1-3.3,20.3,4.7,18.9c3.8-0.7,8.2-3.4,13.1-8l0.9-0.9c-0.1-1.7,0.1-3.5,0.4-5.2c-2.1,2.2-4,3.6-5.8,4.3s-2.8,0.1-3.1-1.7
			c-0.3-2,0.4-5,2-9.1c2.4-5.9,4.9-11.8,7.5-17.7l-4-5.2l5.8,1.1c1.5-3.5,3.1-7,4.7-10.5c1.3-2.9,2.7-5.8,4-8.7c1.9-4,3.8-8,5.7-12
			c0.7-1.3,1.3-2.6,1.9-3.8c4.8-9.7,7.5-15.7,12.1-26.6c-2.2,0.1-4.5,0.5-6.6,1.1c-4,1.1-7,3-8.5,5.9v-0.1c-0.7,1.4-1.4,2.8-2.1,4.1
			c-3.2,6.2-5.6,11-7.2,14.4l-0.4,0.8c-8.6,19-13.2,30.8-14.8,34C186.6,240.5,184.6,242.7,182.1,244.1z"/>
		<path class="st0" d="M236.8,187.3l0.1-0.3c-0.9-0.4-1.9-0.6-2.9-0.6L236.8,187.3z"/>
		<path class="st0" d="M210.7,239l0,0.2L210.7,239L210.7,239z"/>
		<path class="st0" d="M227.1,202.6c0,0.4,0.1,0.8,0.2,1.1c0.1,1.2,0.9,2.2,2,2.7c3.4,1.3,5.8-0.7,7.6-5.8c0.7-1.9,0.9-4,0.7-6.1
			c-0.3-1.8-0.9-2.9-1.9-3.3c-2.9-1.2-5.5,0.6-7.5,5.5c-0.7,1.7-1,3.5-1,5.4C227,202.3,227.1,202.5,227.1,202.6z"/>
		<path class="st0" d="M206,255c-0.9,1.9-1.8,4-2.7,6.3c-0.8,1.9-1.5,3.9-2,5.9c-0.7,2.9-0.8,5.3-0.4,7.2c0.3,1.2,1,2.3,1.9,3.2
			c1.3,1,2.9,1.6,4.6,1.5c1.7,0.1,3.3-0.2,4.9-0.9c2.9-1.1,5.5-2.7,7.9-4.6c1.3-1.1,2.5-2.3,3.6-3.6c1.8-2.1,3.3-4.4,4.6-6.8
			c1-1.8,1.8-3.6,2.6-5.4c-0.1-1.5-0.1-2.2-0.3-3.6c-1.1,2.3-2.3,4.6-3.7,6.7c-1.4,2.3-3.1,4.5-4.9,6.4c-0.4,0.5-0.9,1-1.4,1.4
			c-0.7,0.7-1.5,1.4-2.4,1.9c-1.7,1.1-3.1,1.1-3.9,0.2c-1-1.2-1-3.5,0.2-6.9c0.3-0.8,0.6-1.8,1.1-2.7c0.4-1.1,0.9-2.2,1.5-3.4
			c1.2-2.8,2.6-6,4.1-9.6c2.9-6.9,6.4-15.3,10.3-25.4c0.1-0.2,0.2-0.4,0.2-0.6c0.1-0.4,0.2-0.8,0.3-1.2c0.1-0.6,0.2-1.2,0.2-1.8l0,0
			c0-0.2,0-0.4,0-0.6c-0.1-0.9-0.5-1.7-1.1-2.4c-1.3-1.3-3.5-1.8-7-1.6c-2.2,0.1-3.4,0.2-5.8,0.3c-0.6,1.3-0.9,2-1.6,3.3
			c2.9-0.1,4.3,0.7,4.5,2.4c0.1,1.4-0.6,3.9-2.2,7.6c-0.7,1.8-1.5,3.4-2.1,4.8c-1.5,3.3-2.5,5.5-3.1,6.8c-0.5,1.1-1.3,2-2.2,2.8
			c-0.2,0.2-0.4,0.3-0.6,0.5c-0.3,0.2-0.7,0.5-1,0.7c-0.9,0.5-1.8,0.9-2.8,1.2c0,0,0,0,0-0.1l-0.1,0.1c-1,0.2-2,0.3-3,0.1
			c0.5,0.7,1.2,1.2,1.9,1.7c0.6,0.4,1.3,0.6,1.9,0.8c0.6,0.1,1.2,0.2,1.8,0.3c-0.3,0.6-0.7,1.2-1.1,1.9
			C207.9,251.1,207,252.9,206,255z"/>
		<path class="st0" d="M237.1,238.9l-0.1-0.4c-0.1,0.2-0.2,0.4-0.3,0.6L237.1,238.9z"/>
		<path class="st0" d="M226.9,282.9c-0.2-0.3-0.5-0.6-0.7-0.9l0,0.9L226.9,282.9z"/>
		<path class="st0" d="M264.6,229.5l7.6,3c1.2-4.2,2.1-8.4,2.5-12.7c0.5-4.8,0.2-8.1-1-9.9c-1-1.4-2.8-2-5.3-1.5
			c-2.2,0.4-3.3,0.6-5.5,1l-1.1,3.5c1.9-0.4,3.2,0,3.8,0.9c0.5,0.8,0.7,2.3,0.7,4.4C266.1,222,265.5,225.8,264.6,229.5z"/>
		<path class="st0" d="M255.6,264.7c1.2-1.4,2.3-2.9,3.4-4.5l0,0c0.5-0.6,0.9-1.3,1.3-2c0.4-0.7,0.8-1.2,1.2-1.9
			c3-4.8,5.6-9.9,7.6-15.2c-0.4-0.4-0.7-0.8-1-1.2l-4.8-6.1c-0.3,1.1-0.7,2.3-1,3.5c-0.7,1.7-1.9,3.2-3.5,4.2
			c-0.7,0.5-1.7,0.7-2.5,0.5c0.8,1.2,2.1,2,3.6,2.2c-1.2,2.9-2.4,5.7-3.7,8.2c-0.4,0.8-0.8,1.6-1.2,2.3c-1,1.8-2,3.5-3.1,5.1
			c-0.3,0.4-0.5,0.8-0.8,1.2c-3.7,5.1-7.4,8.5-11.3,10.1c2.7-6.4,4.9-13.1,6.6-19.9c0.7-3,1.3-6.1,1.7-9c0.2-1.6,0.4-3.2,0.6-4.8
			c0.2-2,0.3-4,0.4-5.9c0.3-4.4,0-8.7-0.9-13c-0.8-3.3-2-5.3-3.6-6c-0.1,0-0.2-0.1-0.2-0.1c-0.8-0.3-1.6-0.3-2.3-0.1
			c-0.8,0.2-1.6,0.6-2.3,1.1c-1.6,1.1-2.5,2.3-2.7,3.5c-0.1,0.4-0.1,0.8-0.1,1.2l0,0c0,0.2,0,0.3,0,0.5v0.1c0,0.5,0.2,0.9,0.5,1.3
			c0.1-1.2,0.5-1.6,1.3-1.3c0.8,0.3,1.4,1.2,1.9,2.6c0.7,2.2,1.2,5.4,1.3,9.2c0.2,2.6,0.2,5.2-0.2,7.8c-0.1,0.6-0.3,1.2-0.5,1.7
			c-0.8,1.8-2.1,3.4-3.7,4.5c-0.8,0.6-1.8,0.9-2.8,0.9c-0.3,0-0.5-0.1-0.8-0.2c0.3,0.3,0.5,0.6,0.9,0.9c1.6,1.4,3.8,2,5.8,1.4
			c-0.5,2.9-1.1,6-1.9,9.2l-0.3,1.4c0,0,0,0,0,0.1c-1.1,4.8-2,8.2-2.6,10.2c-0.4,1.3-0.8,2.6-1.3,3.9c-0.2,0.4-0.4,0.8-0.6,1.1
			c-0.6,1.1-1.6,2-2.8,2.5c0,0.9-0.1,1.3-0.1,2.2c2.4-0.2,4.7-0.6,7-1.2C244.8,275,250.5,270.8,255.6,264.7z"/>
		<path class="st0" d="M317.7,220.7c-1.1,2.6-2.7,5.1-4.6,7.2l6.4,1.2c3.6-5.6,5-10.8,4.6-15.2s-2.6-7.4-6.8-9
			c-2-0.8-4.7-1.1-8.1-0.9c-3.8,0.2-7.5,1.1-11,2.8c-9,4.3-14.9,12.3-19.4,23.6c-0.2,0.6-0.5,1.3-0.7,2.1c-0.6,1.1-1.3,2.1-2.1,3
			c-0.5,0.5-1,0.9-1.7,1.3c-0.7,0.5-1.7,0.7-2.6,0.4c0.7,1,1.8,1.7,3,2.1c0.4,0.1,0.8,0.2,1.3,0.2c-2.2,9.4-1.8,17.1,1.2,23
			c1.1,2.4,2.9,4.3,5.2,5.7c2.1,1.2,4.6,1.7,7,1.3c5.7-0.7,12.5-4.3,20.7-10.6c1.4-1,2.7-2.1,3.9-3.3l0,0c0.6-2.3,1.3-4.7,2.2-6.9
			l0.5-1.2c-3.7,3.8-7.7,7.2-12.1,10.1c-4.3,2.9-8,4.8-11.2,5.7c-3.5,0.9-6.1,0.6-8.1-1.1c-3.4-2.9-3.8-9-1.4-18.5
			c4.6,1.6,9.8,1.4,15.9-0.3c6.1-1.7,11.7-4.6,15.9-9.2l-3.8-5c-2.4,2.5-5.2,4.6-8.2,6.3c-7.3,4.3-13.4,6.1-18.9,5.1
			c3.1-10.2,7.2-18.5,13-24.5c4.3-4.6,8.9-7.2,13.4-7.9c3.7-0.6,6.2-0.1,7.7,1.7c0.6,0.8,0.9,2.2,0.7,4.1
			C319.3,216.3,318.7,218.6,317.7,220.7z"/>
		<path class="st0" d="M347,209.2c1.2-3.1,1.1-5.3-0.4-6.6c-1.3-1.2-3.6-1.4-6.9-0.9c-2.2,0.4-3.3,0.6-5.5,0.9
			c-0.6,1.4-0.9,2.1-1.5,3.5c2.7-0.4,4,0.3,4.2,2c0.1,1.4-0.5,4-2.1,7.8c-1.5,3.8-2.7,6.9-3.6,9.1c-0.5,1.3-0.9,2.3-1.2,3
			c-0.7,1.7-1.9,3.2-3.4,4.3c-1.5,1.3-3.5,1.9-5.5,1.6c0.1,0.1,0.2,0.2,0.3,0.3l0,0c1,1.2,2.4,1.9,4,2.1c0.3,0,0.7,0.1,1,0.1
			c-1.3,2.6-2.8,6-4.5,10.3c-0.5,1.2-1,2.4-1.5,3.7c-1,2.4-1.7,4.9-2.2,7.5c-0.7,4.1-0.1,7,1.8,8.7c1.2,1,2.8,1.5,4.4,1.4
			c1.6-0.1,3.1-0.5,4.4-1.3c3-1.7,5.8-3.8,8.1-6.4c-0.1-1.5-0.1-3,0.1-4.5l-0.4,0.5c-2.8,3.1-4.8,4-5.9,2.7
			c-1.1-1.2-0.8-4.6,1.2-9.8C334.9,240.9,340.1,227.7,347,209.2z"/>
		<path class="st0" d="M351,177.4c-3-0.9-5.6,1.2-7.6,6.4c-0.7,1.7-1,3.6-0.9,5.5c0.1,2.3,0.8,3.6,2.1,4c3.3,0.9,5.9-1.3,7.7-6.6
			c0.7-2,1-4.1,0.7-6.2C352.7,178.7,352.1,177.7,351,177.4z"/>
		<path class="st0" d="M345,226.3c0.1,0,0.2,0,0.3,0c0.1-0.2,0.1-0.3,0.2-0.5l-0.1,0.1c-0.2,0.2-0.5,0.3-0.7,0.4
			C344.8,226.3,344.9,226.3,345,226.3z"/>
		<path class="st0" d="M353.5,194l-0.2,0l-0.1,0.4C353.3,194.3,353.4,194.1,353.5,194z"/>
		<path class="st0" d="M385,207.4c-0.7-1.4-1.8-2-3.1-1.8c-1.1,0.2-2.1,0.9-2.8,1.8c-1.8,2-2.2,4.9-0.9,7.3c0.4,1,1.4,1.8,2.5,2
			c0.6,0.1,1.2,0.1,1.8-0.1c0.5-1.3,1.1-2.6,1.7-3.8l0.3-0.5c-0.2,0.4-0.6,0.6-1,0.7c0.8-0.7,1.4-1.7,1.7-2.7
			C385.6,209.4,385.5,208.3,385,207.4z"/>
		<path class="st0" d="M345.8,264.8c2.5-0.2,4.9-1.4,6.6-3.3c2.1-2.3,3.3-5.4,3.4-8.5c-0.7,1.6-1.4,2.5-2.1,2.7
			c-0.4,0.1-0.9-0.1-1.1-0.5h0c-0.9-1.3-0.5-4.6,1.2-9.9c0.7-2.1,2.2-6.3,4.4-12.5c3-8.2,7.1-15.8,12.3-22.8
			c5.7-7.8,10.3-11.3,13.7-10.6c1.4,0.3,2.6,1.3,3,2.7c0.4,1.5,0.4,3,0.1,4.5c-0.1,0.6-0.3,1.2-0.5,1.8c0.1-0.1,0.1-0.2,0.2-0.3
			c0.4-0.7,0.8-1.4,1.2-2c0.6-1,1.3-2,2-3c0.4-0.6,0.9-1.2,1.3-1.7c0-2.2-1-4.2-2.6-5.6c-0.7-0.6-1.5-1.1-2.4-1.4l-0.4-0.1
			c-2.1-0.7-4.8-0.2-7.8,1.4c-3.6,1.9-6.9,5-9.9,9.2c1.6-3.9,1.6-6.5-0.1-7.8c-1.2-0.9-3.1-1.1-5.6-0.5c-2.3,0.5-3.5,0.8-5.9,1.4
			l-1.4,3.7c2.2-0.5,3.5-0.1,3.9,1.2c0.3,1.5-0.3,4.3-2,8.5c-1.6,4.3-2.5,6.5-4.1,10.8c-1.3,3.5-3,6-5,7.5c-1.5,1.1-2.7,1.4-3.7,1.1
			c1.2,1.3,2.9,2,4.7,2c-1,2.7-1.9,5-2.7,7c-0.6,1.4-1,2.7-1.4,3.7c-0.7,1.9-1.2,3.1-1.3,3.7c-0.7,2.1-1.3,4.3-1.7,6.5
			c-0.7,3.5-0.8,6.2-0.2,8C342.1,263.6,343.9,264.9,345.8,264.8z"/>
		<path class="st0" d="M405.9,242.3l0.3-0.8c-0.3,0.2-0.5,0.4-0.7,0.6L405.9,242.3z"/>
		<path class="st0" d="M422.5,188.5c-2.5,0.3-4.9,0.8-7.3,1.5c-4.2,1.1-8.1,3-11.6,5.6c-2.9,2.1-5.5,4.6-7.7,7.4l-0.1,0.1
			c-1.9,2.3-3.6,4.8-5.1,7.3c-0.2,0.4-0.5,0.8-0.7,1.2c-0.6,1.1-1.1,2.1-1.6,3.2l0,0c-0.9,1.8-1.6,3.6-2.3,5.3l0,0
			c-1.3,3.4-2.2,6.9-2.8,10.5c-0.6,3.4-0.8,6.8-0.6,10.2l0,0c0.1,1.4,0.3,2.8,0.7,4.1l0,0c0.2,0.8,0.4,1.5,0.7,2.2
			c0.5,1.5,1.3,2.8,2.4,3.9c0.7,0.8,1.6,1.4,2.5,1.9c2.4,1.3,5.4,1.7,9.1,1.2c4.3-0.5,8.5-1.9,12.4-3.9c2.1-1.1,4.2-2.4,6.1-3.8
			c0,1.6,0.6,3.2,1.7,4.5c1.2,1.2,2.8,1.9,4.5,1.9c0.5,0,0.9,0,1.4,0c3.4-0.2,7.4-2.4,12-6.5c4.9-4.4,10-10.7,15-18.8l-1.9-2.1
			c-7.4,11.1-13.1,17-16.8,18.1c-1.6,0.5-2.5-0.1-2.7-1.8c-0.2-1.8,0.5-4.6,2-8.4c7.1-16.9,14.4-34.1,21.3-51.3
			c-6.5,2.2-11.1,4.8-13.5,8.5v-0.1h-0.1c-0.8-0.5-1.7-1-2.6-1.3c-3-1-6.1-1.5-9.3-1.4c-1,0-2.1,0.1-3.2,0.2
			C423.7,188.3,423.1,188.4,422.5,188.5z M428.4,192.5c1.2,0.4,2.2,1,3,2c2.5,2.8,2.4,7.7-0.5,14.7c-0.2,0.4-0.4,0.9-0.8,1.7l0,0
			c-1.3,2.9-3,5.1-5,6.4c-0.3,0.2-0.7,0.4-1,0.6c-1.8,0.9-3.3,1-4.6,0.5c1.4,1.5,3.3,2.4,5.4,2.7c0.2,0,0.4,0,0.5,0.1
			c-0.2,0.4-0.4,0.9-0.7,1.5c-0.1,0.3-0.2,0.5-0.4,0.8c-0.4,0.9-0.7,1.5-0.9,1.8c-2.5,5.2-5.7,10.1-9.5,14.6c-1.2,1.4-2.5,2.7-3.8,4
			c-3.9,3.7-7.6,5.7-11.1,6.1c-2.5,0.3-4.4-0.1-5.7-1.2c-1.6-1.4-2.5-3.7-2.7-6.8c-0.1-1.9,0-3.8,0.3-5.6c0.9-5.9,2.6-11.7,5-17.1
			c0.3-0.7,0.6-1.3,0.9-2c2.2-4.8,4.9-9.3,8.2-13.4c0.3-0.4,0.7-0.8,1-1.2c0.9-1,1.8-2,2.7-2.9c2.1-2.1,4.6-3.9,7.3-5.3
			c2.2-1.2,4.7-1.9,7.2-2.2l0.7-0.1C425.5,192,426.9,192.1,428.4,192.5z"/>
		<path class="st0" d="M466.5,179.1c0.4,0.1,0.8,0.1,1.2-0.1c5.2-2.7,9.9-7.4,14.3-13.9c4.3-6.4,7.4-13.4,9.4-20.9
			c0.5-1.5,0.8-4,0.9-7.4c0-4.4-0.9-6.6-2.9-6.4c-2.2,0.2-3.9,1.4-5.1,3.6c-1.1,2.2-1.7,4.6-1.7,7c-0.1,3.9-0.6,7.8-1.4,11.6
			c-1.2,5.8-3.1,10.5-5.7,13.9c-2.1,2.8-4.3,5.5-6.6,8.1c-1.5,1.7-2.3,3-2.5,3.6C466.1,178.7,466.2,179,466.5,179.1z"/>
		<path class="st0" d="M501.2,190.7c2,0.3,3.3,0.8,3.9,1.4c-0.7,0.7-1.5,1.2-2.3,1.6c-0.7,0.4-1.5,0.6-2.2,0.6
			c0.6,0.7,1.9,1.2,3.7,1.3c1.3,0.1,2.6,0,3.8-0.4c1.2,2.6,1.1,6.5-0.4,11.6c-1.3,5-3.7,9.6-7.1,13.5c-3.4,3.9-6.9,6.3-10.2,7.1
			c-3.5,0.9-6.2-0.3-8.1-3.5c-1.7-2.9-1.5-7.5,0.7-13.6c1.8-5.2,3.9-9,6.1-11.3c1.8-1.9,3.2-2.6,4.1-2.1c0.9,0.5,1.1,2.2,0.5,5.2
			c-1,4.4-2.6,8.6-4.8,12.5c0.4,0.7,0.5,1.1,0.9,1.8c4.3-3.7,7.4-8.6,9-14c0.7-2.1,0.9-4.4,0.5-6.6c-0.4-1.8-1.7-3.2-3.5-3.6
			c-1.9-0.5-4.1,0-6.5,1.5c-2.6,1.7-4.8,3.9-6.5,6.5c-2.1,3-3.7,6.2-4.8,9.7c-1.2,3.6-1.7,7.4-1.5,11.2c0.4,6.2,2.4,9.9,6.1,11.2
			c2.9,1,6.7,0.4,11.3-1.5c4.7-2.1,9.2-4.8,13.2-8.1c5.3-4.2,10.2-9,14.5-14.3c6.7-8.3,11.3-14.6,13.6-19.9c-0.7-0.6-1.2-0.8-2-1.4
			c-1,2.1-3.6,5.4-7.7,10.1c-4,4.5-6.9,7.8-9,9.5c2.4-5.9,2.4-10.9,0.2-15c-1.8-3.2-4.2-5.1-7.2-5.5c-3.8-0.5-6.1-0.9-6.8-1.2
			c-2.2-1-3.1-3.3-2.6-6.7c0.5-3.5,2.1-6.8,4.7-9.3c1.8-1.8,4.1-3.2,6.5-3.8c2.2-0.6,4-0.4,5.1,0.4c1.6,1.1,2.1,3.3,1.4,6.6
			c-0.4,2.2-1.4,4.2-2.9,5.9c-1.1,1.2-2.6,2.1-4.2,2.6c2-1.4,3-3,2.9-4.9c0.1-1.5-0.7-2.8-2-3.5c-1.2-0.6-2.7-0.4-4.4,0.7
			c-1.9,1.3-3.2,3.4-3.6,5.7c-0.5,2.5,0.2,4.1,2.4,4.8c2.1,0.6,4.3,0.5,6.3-0.3c2.4-1,4.6-2.5,6.3-4.4c2.1-2.1,3.6-4.7,4.3-7.6
			c0.8-2.9,0-6-2.1-8.2c-2.3-2.5-5.6-3.3-9.7-2.3c-4.3,1.1-8.2,3.6-11.6,7.5c-3,3.3-5.1,7.4-6.1,11.8c-0.5,2.6-0.3,4.8,0.9,6.7
			C495.7,188.9,498,190.1,501.2,190.7z"/>
		<polygon class="st0" points="256.5,322.5 265.9,328.4 267.9,325.2 254.6,316.7 239.1,340.9 252.5,349.4 254.6,346.2 245.2,340.2 
			249.9,332.8 258.2,338.1 260.3,334.9 251.9,329.6 		"/>
		<path class="st0" d="M279.8,329.9c-1.6-0.7-3.4-1-5.2-0.9c-1.5,0.1-3,0.5-4.3,1.4c-1.2,0.9-2.2,2.2-2.7,3.6
			c-0.6,1.4-0.8,3-0.4,4.5c0.4,1.2,1,2.4,1.9,3.3c1.2,1.1,2.4,2.1,3.7,3c1,0.7,2,1.4,2.9,2.2c0.6,0.6,1.2,1.3,1.5,2.1
			c0.3,0.8,0.3,1.7-0.1,2.5c-0.4,1.1-1.3,2-2.4,2.3c-1.3,0.4-2.7,0.3-4-0.3c-1.3-0.4-2.3-1.3-3-2.4c-0.5-1-0.6-2.3-0.3-3.4l-4.7-1.8
			c-0.6,1.4-0.7,3-0.3,4.5c0.4,1.5,1.2,2.9,2.4,4c1.3,1.2,2.8,2.2,4.5,2.8c1.7,0.7,3.5,1,5.4,0.8c1.6-0.1,3.1-0.7,4.3-1.7
			c1.2-0.9,2.1-2.1,2.6-3.4c0.6-1.4,0.8-3,0.4-4.5c-0.4-1.3-1-2.4-2-3.3c-1.2-1.1-2.4-2.2-3.7-3.1c-1-0.7-1.9-1.4-2.8-2.2
			c-0.6-0.5-1.1-1.2-1.4-2c-0.3-0.7-0.3-1.6,0-2.3c0.3-1.1,1.2-1.9,2.2-2.3c1.1-0.3,2.4-0.3,3.5,0.2c1.2,0.4,2.3,1.2,2.9,2.3
			c0.6,0.9,0.7,2,0.4,3l4.8,1.9c0.7-2.1,0.5-4.5-0.7-6.4C284.1,332.3,282.1,330.7,279.8,329.9z"/>
		<polygon class="st0" points="290.3,338.2 297.9,339.4 293.9,364 298.6,364.7 302.5,340.2 310.1,341.4 310.7,337.6 290.9,334.4 		
			"/>
		<path class="st0" d="M332.1,361l1.6-1.9c1.9-2.2,3.4-4.1,4.6-5.7c1.2-1.6,2.2-3.4,2.9-5.3c0.7-1.9,1-3.9,0.7-5.9
			c-0.2-2.5-1.4-4.7-3.4-6.2c-1.9-1.4-4.3-1.9-7.3-1.5c-2.5,0.2-4.8,1.4-6.5,3.4c-1.6,1.9-2.2,4.4-1.9,7.5l4.5-0.6
			c-0.2-1.5,0.1-3,0.9-4.3c0.8-1.2,2.1-1.9,3.5-2c1.7-0.2,2.9,0.1,3.8,0.9c1,1,1.6,2.3,1.7,3.7c0.2,1.7-0.1,3.4-0.9,4.9
			c-0.9,1.8-1.9,3.5-3.2,5.1c-1.3,1.7-3.2,3.8-5.5,6.4l-2.6,2.9l0.4,3.4l19.9-2.6l-0.5-3.9L332.1,361z"/>
		<path class="st0" d="M362.4,330.3c-2.4-2-5.5-2.3-9.2-1c-3.7,1.3-5.9,3.5-6.5,6.6c-0.6,3.1-0.1,6.8,1.5,11.3
			c1.6,4.5,3.6,7.7,6.1,9.8c2.4,2,5.5,2.3,9.2,1c3.7-1.3,5.9-3.5,6.4-6.6c0.6-3.1,0.1-6.9-1.6-11.4
			C366.8,335.4,364.8,332.2,362.4,330.3z M365.3,351.3c-1.5,2.6-4.6,3.7-7.4,2.7c-1.3-0.7-2.3-1.7-2.9-3c-0.9-1.7-1.7-3.5-2.4-5.3
			c-0.7-1.8-1.2-3.6-1.5-5.5c-0.3-1.4-0.1-2.8,0.4-4.2c1.5-2.6,4.6-3.7,7.4-2.7c1.2,0.7,2.3,1.7,2.9,3c0.9,1.6,1.7,3.4,2.3,5.2
			c0.7,1.8,1.2,3.7,1.6,5.6C365.9,348.6,365.8,350,365.3,351.3z"/>
		<polygon class="st0" points="365.2,324.9 367.3,328.6 370.7,326.7 383.5,349.1 387.6,346.7 372.6,320.6 		"/>
		<polygon class="st0" points="391.6,306.5 376.1,319 378.6,322.1 390.5,312.5 397.8,340 401.5,337 393.8,309.2 		"/>
		<path class="st0" d="M448,269.3c-11,5.4-25.7,9.9-42.4,13.8c-2.6,0.6-5.2,1.2-7.9,1.7c-4.2,0.9-8.5,1.7-12.9,2.6l0,0
			c-10.5,1.9-21.4,3.6-32.2,5.1l-1.1,0.2c-5.7,0.7-11.4,1.5-17,2.2l-1.1,0.1c-5.5,0.7-11,1.3-16.4,1.8l-1.1,0.1
			c-5.9,0.6-11.6,1.1-17.2,1.6l-1.1,0.1c-11.4,1-21.9,1.7-30.9,2.3c-4.6,0.3-8.9,0.5-12.7,0.7c-2.8,0.1-5.4,0.3-7.7,0.4
			c-4.9,0.2-8.5,0.3-10.4,0.3c-16.7,0.1-75.6,4.6-84.5,5.8c-8.9,1.2-21,8.8-21,8.8c-0.3-0.9-0.1-1.9,0.3-2.7
			c-4.1,0.9-19.5,7.4-19.9,7.6c19.3-16.4,86.9-23,130.5-24c2,0,3.9-0.1,5.8-0.1h1.7c4.1-0.1,8.2-0.2,12.2-0.3
			c6-0.2,11.8-0.5,17.7-0.9l1.2-0.1c6.2-0.4,12.4-1,18.7-1.6l1.2-0.1c6.6-0.7,13.4-1.4,20.3-2.2c4.1-0.5,8.2-1,12.4-1.5
			c6-0.7,12.1-1.5,18.4-2.3l0.3,0c5.9-0.7,12.1-1.5,18.4-2.3l1.2-0.2l8.8-1.1c3.1-0.4,6.2-0.8,9.3-1.4c4.1-0.7,8.1-1.5,12.1-2.4
			c2.6-0.6,5.1-1.2,7.7-1.9c24.3-6.5,47.7-16,69.6-28.3c-3.3,1.5-26.5,8.8-63.1,18.3c-2.2,0.6-4.5,1.2-6.8,1.7
			c-3.5,0.9-7.2,1.8-11,2.8c-5.7,1.4-11.7,2.9-17.9,4.3c-4,0.9-8.2,1.8-12.5,2.6l-1.2,0.2c-3.5,0.6-7.1,1.2-10.8,1.8
			c-8,1.2-16.4,2.2-25.1,3.1h-0.1c-4,0.4-8.1,0.8-12.3,1.2h-0.1c-8.2,0.7-16.4,1.3-24.7,1.9l-9.8,0.6l-1.2,0.1
			c-10,0.6-19.8,1.1-29.2,1.5l-10.6,0.5l-6.7,0.3c-20.7,1-38,2-47.8,3.6c-31,5-54.5,5.9-77.4,18.8c-15.8,8.8-30.7,27.4-29.1,51.9
			c1,16.4,8.1,36.7,34.4,42.6c65.7,14.7,49.4-45.9,49.4-45.9c-0.3,10.5-1.8,14.4-5.8,20.3c-4.8,7.3-12.3,4.2-12.3,4.2
			c2.6-12.9-6.1-17.7-6.1-17.7c1.3,10.7-9.9,13.6-9.9,13.6c4.5-18.2-2.7-20.2-2.7-20.2c-13.1,18.1-29.7,0.9-31-9.3
			c-1.3-10.2,13.9-19.2,13.9-19.2c10.1,18.3,27.2,5.7,27.2,5.7c-14.5-9.2,0.2-22.1,0.2-22.1c3.3,20.1,26.6,14.8,26.6,14.8
			c-4.3-16.7,27-21,45.9-22.5c7.7-0.6,23.8-0.1,47-0.7c3.1-0.1,6.3-0.2,9.6-0.3c5.5-0.2,11.3-0.4,17.3-0.8
			c9.7-0.5,20.2-1.3,31.4-2.4l1.1-0.1c5.9-0.6,12.1-1.2,18.4-2l1.1-0.1c10.1-1.2,20.6-2.7,31.7-4.4c5.6-0.9,11.3-1.9,17.1-2.9
			c3.1-0.6,6.3-1.2,9.4-1.8c1.8-0.3,3.6-0.7,5.3-1c100-20,146-91.1,146.7-92.2C506.4,242.2,501,243.3,448,269.3z M114.9,382.7
			c-5.1,0.9-10.3,0-14.8-2.6c5.6,13.6,28.6,14.3,28.6,14.3c-15.5,2.2-23.3-3.9-23.7-4.2c8.7,12,40.2,11.3,40.2,11.3
			c-44.1,13.9-52.4-30.9-52.6-32.1C95.9,377,114.9,382.7,114.9,382.7z"/>
	</g>
</g>
</svg>
